<?xml version="1.0" encoding="utf-8" standalone="no"?>
<!DOCTYPE svg PUBLIC "-//W3C//DTD SVG 1.1//EN"
  "http://www.w3.org/Graphics/SVG/1.1/DTD/svg11.dtd">
<!-- Created with matplotlib (http://matplotlib.org/) -->
<svg height="432pt" version="1.1" viewBox="0 0 720 432" width="720pt" xmlns="http://www.w3.org/2000/svg" xmlns:xlink="http://www.w3.org/1999/xlink">
 <defs>
  <style type="text/css">
*{stroke-linecap:butt;stroke-linejoin:round;stroke-miterlimit:100000;}
  </style>
 </defs>
 <g id="figure_1">
  <g id="patch_1">
   <path d="M 0 432 
L 720 432 
L 720 0 
L 0 0 
z
" style="fill:#ffffff;"/>
  </g>
  <g id="axes_1">
   <g id="patch_2">
    <path d="M 55.8 317.52 
L 705.6 317.52 
L 705.6 43.2 
L 55.8 43.2 
z
" style="fill:#e5e5e5;"/>
   </g>
   <g id="patch_3">
    <path d="M 705.6 317.52 
L 705.6 43.2 
" style="fill:none;"/>
   </g>
   <g id="patch_4">
    <path d="M 55.8 317.52 
L 55.8 43.2 
" style="fill:none;"/>
   </g>
   <g id="patch_5">
    <path d="M 55.8 43.2 
L 705.6 43.2 
" style="fill:none;"/>
   </g>
   <g id="patch_6">
    <path d="M 55.8 317.52 
L 705.6 317.52 
" style="fill:none;"/>
   </g>
   <g id="matplotlib.axis_1">
    <g id="xtick_1">
     <g id="line2d_1">
      <defs>
       <path d="M 0 0 
L 0 -4 
" id="m1f04558f3c" style="stroke:#000000;stroke-width:0.5;"/>
      </defs>
      <g>
       <use style="stroke:#000000;stroke-width:0.5;" x="137.025" xlink:href="#m1f04558f3c" y="317.52"/>
      </g>
     </g>
     <g id="line2d_2">
      <defs>
       <path d="M 0 0 
L 0 4 
" id="m2c89f1ae36" style="stroke:#000000;stroke-width:0.5;"/>
      </defs>
      <g>
       <use style="stroke:#000000;stroke-width:0.5;" x="137.025" xlink:href="#m2c89f1ae36" y="43.2"/>
      </g>
     </g>
     <g id="text_1">
      <!-- 6 CPU only -->
      <defs>
       <path d="M 14.015625 67.671875 
L 4.6875 67.671875 
L 4.6875 72.90625 
L 33.203125 72.90625 
L 33.203125 67.671875 
L 23.875 67.671875 
L 23.875 29.984375 
Q 23.875 16.015625 28.4375 10.5 
Q 33.015625 4.984375 44.1875 4.984375 
Q 55.375 4.984375 59.9375 10.5 
Q 64.5 16.015625 64.5 29.984375 
L 64.5 67.671875 
L 55.171875 67.671875 
L 55.171875 72.90625 
L 79.78125 72.90625 
L 79.78125 67.671875 
L 70.515625 67.671875 
L 70.515625 29 
Q 70.515625 12.359375 64.109375 5.46875 
Q 57.71875 -1.421875 42.390625 -1.421875 
Q 27.046875 -1.421875 20.53125 5.515625 
Q 14.015625 12.453125 14.015625 29 
z
" id="BitstreamVeraSerif-Roman-55"/>
       <path d="M 24.703125 37.109375 
L 37.59375 37.109375 
Q 44.875 37.109375 48.671875 41.03125 
Q 52.484375 44.96875 52.484375 52.390625 
Q 52.484375 59.859375 48.671875 63.765625 
Q 44.875 67.671875 37.59375 67.671875 
L 24.703125 67.671875 
z
M 5.515625 0 
L 5.515625 5.171875 
L 14.796875 5.171875 
L 14.796875 67.671875 
L 5.515625 67.671875 
L 5.515625 72.90625 
L 39.984375 72.90625 
Q 50.921875 72.90625 57.3125 67.359375 
Q 63.71875 61.8125 63.71875 52.390625 
Q 63.71875 43.015625 57.3125 37.453125 
Q 50.921875 31.890625 39.984375 31.890625 
L 24.703125 31.890625 
L 24.703125 5.171875 
L 35.984375 5.171875 
L 35.984375 0 
z
" id="BitstreamVeraSerif-Roman-50"/>
       <path d="M 20.515625 5.171875 
L 29 5.171875 
L 29 0 
L 2.875 0 
L 2.875 5.171875 
L 11.53125 5.171875 
L 11.53125 70.796875 
L 2.875 70.796875 
L 2.875 75.984375 
L 20.515625 75.984375 
z
" id="BitstreamVeraSerif-Roman-6c"/>
       <path d="M 21.578125 -9.515625 
L 25 -0.875 
L 5.609375 46.6875 
L -0.296875 46.6875 
L -0.296875 51.90625 
L 23.578125 51.90625 
L 23.578125 46.6875 
L 15.28125 46.6875 
L 29.890625 10.984375 
L 44.484375 46.6875 
L 36.71875 46.6875 
L 36.71875 51.90625 
L 56.203125 51.90625 
L 56.203125 46.6875 
L 50.390625 46.6875 
L 26.609375 -11.71875 
Q 24.171875 -17.78125 21.1875 -20 
Q 18.21875 -22.21875 12.796875 -22.21875 
Q 10.5 -22.21875 8.078125 -21.828125 
Q 5.671875 -21.4375 3.21875 -20.703125 
L 3.21875 -10.796875 
L 7.8125 -10.796875 
Q 8.109375 -14.109375 9.5 -15.546875 
Q 10.890625 -17 13.8125 -17 
Q 16.5 -17 18.140625 -15.5 
Q 19.78125 -14.015625 21.578125 -9.515625 
" id="BitstreamVeraSerif-Roman-79"/>
       <path d="M 4.109375 0 
L 4.109375 5.171875 
L 12.203125 5.171875 
L 12.203125 46.6875 
L 3.609375 46.6875 
L 3.609375 51.90625 
L 21.1875 51.90625 
L 21.1875 42.671875 
Q 23.6875 47.953125 27.65625 50.640625 
Q 31.640625 53.328125 36.921875 53.328125 
Q 45.515625 53.328125 49.5625 48.390625 
Q 53.609375 43.453125 53.609375 33.015625 
L 53.609375 5.171875 
L 61.625 5.171875 
L 61.625 0 
L 36.8125 0 
L 36.8125 5.171875 
L 44.578125 5.171875 
L 44.578125 30.171875 
Q 44.578125 39.703125 42.234375 43.234375 
Q 39.890625 46.78125 33.984375 46.78125 
Q 27.734375 46.78125 24.453125 42.203125 
Q 21.1875 37.640625 21.1875 28.90625 
L 21.1875 5.171875 
L 29 5.171875 
L 29 0 
z
" id="BitstreamVeraSerif-Roman-6e"/>
       <path d="M 32.71875 3.421875 
Q 39.59375 3.421875 43.296875 8.46875 
Q 47.015625 13.53125 47.015625 23 
Q 47.015625 32.46875 43.296875 37.515625 
Q 39.59375 42.578125 32.71875 42.578125 
Q 25.734375 42.578125 22.0625 37.6875 
Q 18.40625 32.8125 18.40625 23.578125 
Q 18.40625 13.875 22.109375 8.640625 
Q 25.828125 3.421875 32.71875 3.421875 
M 16.796875 40.140625 
Q 20.125 43.796875 24.3125 45.59375 
Q 28.515625 47.40625 33.796875 47.40625 
Q 44.671875 47.40625 51 40.859375 
Q 57.328125 34.328125 57.328125 23 
Q 57.328125 11.921875 50.515625 5.25 
Q 43.703125 -1.421875 32.328125 -1.421875 
Q 19.96875 -1.421875 13.328125 7.78125 
Q 6.6875 17 6.6875 34.078125 
Q 6.6875 53.21875 14.546875 63.71875 
Q 22.40625 74.21875 36.71875 74.21875 
Q 40.578125 74.21875 44.828125 73.484375 
Q 49.078125 72.75 53.515625 71.296875 
L 53.515625 59.28125 
L 48 59.28125 
Q 47.40625 64.203125 44.234375 66.796875 
Q 41.0625 69.390625 35.6875 69.390625 
Q 26.21875 69.390625 21.578125 62.203125 
Q 16.9375 55.03125 16.796875 40.140625 
" id="BitstreamVeraSerif-Roman-36"/>
       <path id="BitstreamVeraSerif-Roman-20"/>
       <path d="M 70.515625 19.28125 
Q 67.28125 9.078125 59.6875 3.828125 
Q 52.09375 -1.421875 40.484375 -1.421875 
Q 33.34375 -1.421875 27.234375 1.015625 
Q 21.140625 3.46875 16.40625 8.203125 
Q 10.9375 13.671875 8.265625 20.625 
Q 5.609375 27.59375 5.609375 36.375 
Q 5.609375 53.375 15.421875 63.796875 
Q 25.25 74.21875 41.3125 74.21875 
Q 47.265625 74.21875 54 72.65625 
Q 60.75 71.09375 68.5 67.921875 
L 68.5 51.125 
L 62.984375 51.125 
Q 61.1875 60.296875 55.734375 64.640625 
Q 50.296875 69 40.484375 69 
Q 28.8125 69 22.796875 60.71875 
Q 16.796875 52.4375 16.796875 36.375 
Q 16.796875 20.359375 22.796875 12.078125 
Q 28.8125 3.8125 40.484375 3.8125 
Q 48.640625 3.8125 53.90625 7.6875 
Q 59.1875 11.578125 61.53125 19.28125 
z
" id="BitstreamVeraSerif-Roman-43"/>
       <path d="M 30.078125 3.421875 
Q 37.3125 3.421875 40.984375 9.125 
Q 44.671875 14.84375 44.671875 25.984375 
Q 44.671875 37.109375 40.984375 42.796875 
Q 37.3125 48.484375 30.078125 48.484375 
Q 22.859375 48.484375 19.171875 42.796875 
Q 15.484375 37.109375 15.484375 25.984375 
Q 15.484375 14.84375 19.1875 9.125 
Q 22.90625 3.421875 30.078125 3.421875 
M 30.078125 -1.421875 
Q 18.75 -1.421875 11.859375 6.078125 
Q 4.984375 13.578125 4.984375 25.984375 
Q 4.984375 38.375 11.84375 45.84375 
Q 18.703125 53.328125 30.078125 53.328125 
Q 41.453125 53.328125 48.3125 45.84375 
Q 55.171875 38.375 55.171875 25.984375 
Q 55.171875 13.578125 48.3125 6.078125 
Q 41.453125 -1.421875 30.078125 -1.421875 
" id="BitstreamVeraSerif-Roman-6f"/>
      </defs>
      <g transform="translate(94.39921875 332.91765625)scale(0.15 -0.15)">
       <use xlink:href="#BitstreamVeraSerif-Roman-36"/>
       <use x="63.623046875" xlink:href="#BitstreamVeraSerif-Roman-20"/>
       <use x="95.41015625" xlink:href="#BitstreamVeraSerif-Roman-43"/>
       <use x="171.923828125" xlink:href="#BitstreamVeraSerif-Roman-50"/>
       <use x="239.193359375" xlink:href="#BitstreamVeraSerif-Roman-55"/>
       <use x="323.470703125" xlink:href="#BitstreamVeraSerif-Roman-20"/>
       <use x="355.2578125" xlink:href="#BitstreamVeraSerif-Roman-6f"/>
       <use x="415.462890625" xlink:href="#BitstreamVeraSerif-Roman-6e"/>
       <use x="479.8671875" xlink:href="#BitstreamVeraSerif-Roman-6c"/>
       <use x="511.849609375" xlink:href="#BitstreamVeraSerif-Roman-79"/>
      </g>
     </g>
    </g>
    <g id="xtick_2">
     <g id="line2d_3">
      <g>
       <use style="stroke:#000000;stroke-width:0.5;" x="299.475" xlink:href="#m1f04558f3c" y="317.52"/>
      </g>
     </g>
     <g id="line2d_4">
      <g>
       <use style="stroke:#000000;stroke-width:0.5;" x="299.475" xlink:href="#m2c89f1ae36" y="43.2"/>
      </g>
     </g>
     <g id="text_2">
      <!-- 1 CPU &amp; 1 GPU -->
      <defs>
       <path d="M 14.203125 0 
L 14.203125 5.171875 
L 26.90625 5.171875 
L 26.90625 65.828125 
L 12.203125 56.296875 
L 12.203125 62.703125 
L 29.984375 74.21875 
L 36.71875 74.21875 
L 36.71875 5.171875 
L 49.421875 5.171875 
L 49.421875 0 
z
" id="BitstreamVeraSerif-Roman-31"/>
       <path d="M 64.015625 51.125 
Q 62.3125 60.25 56.890625 64.625 
Q 51.46875 69 41.796875 69 
Q 29.203125 69 23 60.890625 
Q 16.796875 52.78125 16.796875 36.375 
Q 16.796875 20.3125 23.1875 12.0625 
Q 29.59375 3.8125 42 3.8125 
Q 47.515625 3.8125 52.53125 5.171875 
Q 57.5625 6.546875 62.109375 9.28125 
L 62.109375 28.078125 
L 48.390625 28.078125 
L 48.390625 33.296875 
L 72.015625 33.296875 
L 72.015625 6.109375 
Q 65.53125 2.34375 58.03125 0.453125 
Q 50.53125 -1.421875 42 -1.421875 
Q 25.484375 -1.421875 15.546875 8.90625 
Q 5.609375 19.234375 5.609375 36.375 
Q 5.609375 53.65625 15.5625 63.9375 
Q 25.53125 74.21875 42.390625 74.21875 
Q 48.640625 74.21875 55.296875 72.78125 
Q 61.96875 71.34375 69.484375 68.40625 
L 69.484375 51.125 
z
" id="BitstreamVeraSerif-Roman-47"/>
       <path d="M 54 11.28125 
L 25.59375 41.21875 
Q 21.34375 37.40625 19.21875 32.984375 
Q 17.09375 28.5625 17.09375 23.578125 
Q 17.09375 15.484375 22.703125 9.984375 
Q 28.328125 4.5 36.71875 4.5 
Q 41.703125 4.5 46.109375 6.21875 
Q 50.53125 7.953125 54 11.28125 
M 84.28125 0 
L 64.703125 0 
L 58.015625 7.078125 
Q 52.875 2.78125 47.0625 0.671875 
Q 41.265625 -1.421875 34.515625 -1.421875 
Q 21.921875 -1.421875 14.546875 5.015625 
Q 7.171875 11.46875 7.171875 22.515625 
Q 7.171875 29 10.90625 34.640625 
Q 14.65625 40.28125 22.21875 45.21875 
Q 19.734375 48.1875 18.5625 51.140625 
Q 17.390625 54.109375 17.390625 57.328125 
Q 17.390625 65.09375 22.96875 69.65625 
Q 28.5625 74.21875 38.1875 74.21875 
Q 41.453125 74.21875 45.828125 73.390625 
Q 50.203125 72.5625 55.8125 70.90625 
L 55.8125 58.296875 
L 50.296875 58.296875 
Q 49.609375 63.53125 46.484375 66.265625 
Q 43.359375 69 37.984375 69 
Q 32.953125 69 29.828125 66.234375 
Q 26.703125 63.484375 26.703125 59.078125 
Q 26.703125 56.109375 28.359375 53.15625 
Q 30.03125 50.203125 35.296875 44.671875 
L 60.5 18.109375 
Q 63.875 22.015625 65.796875 26.53125 
Q 67.71875 31.0625 68.21875 36.1875 
L 59.421875 36.1875 
L 59.421875 41.40625 
L 82.515625 41.40625 
L 82.515625 36.1875 
L 74.125 36.1875 
Q 73.296875 29.828125 70.875 24.3125 
Q 68.453125 18.796875 64.40625 14.109375 
L 72.796875 5.171875 
L 84.28125 5.171875 
z
" id="BitstreamVeraSerif-Roman-26"/>
      </defs>
      <g transform="translate(239.258203125 332.91765625)scale(0.15 -0.15)">
       <use xlink:href="#BitstreamVeraSerif-Roman-31"/>
       <use x="63.623046875" xlink:href="#BitstreamVeraSerif-Roman-20"/>
       <use x="95.41015625" xlink:href="#BitstreamVeraSerif-Roman-43"/>
       <use x="171.923828125" xlink:href="#BitstreamVeraSerif-Roman-50"/>
       <use x="239.193359375" xlink:href="#BitstreamVeraSerif-Roman-55"/>
       <use x="323.470703125" xlink:href="#BitstreamVeraSerif-Roman-20"/>
       <use x="355.2578125" xlink:href="#BitstreamVeraSerif-Roman-26"/>
       <use x="444.271484375" xlink:href="#BitstreamVeraSerif-Roman-20"/>
       <use x="476.05859375" xlink:href="#BitstreamVeraSerif-Roman-31"/>
       <use x="539.681640625" xlink:href="#BitstreamVeraSerif-Roman-20"/>
       <use x="571.46875" xlink:href="#BitstreamVeraSerif-Roman-47"/>
       <use x="651.3515625" xlink:href="#BitstreamVeraSerif-Roman-50"/>
       <use x="718.62109375" xlink:href="#BitstreamVeraSerif-Roman-55"/>
      </g>
     </g>
    </g>
    <g id="xtick_3">
     <g id="line2d_5">
      <g>
       <use style="stroke:#000000;stroke-width:0.5;" x="461.925" xlink:href="#m1f04558f3c" y="317.52"/>
      </g>
     </g>
     <g id="line2d_6">
      <g>
       <use style="stroke:#000000;stroke-width:0.5;" x="461.925" xlink:href="#m2c89f1ae36" y="43.2"/>
      </g>
     </g>
     <g id="text_3">
      <!-- 6 CPU &amp; 1 GPU -->
      <g transform="translate(401.708203125 332.91765625)scale(0.15 -0.15)">
       <use xlink:href="#BitstreamVeraSerif-Roman-36"/>
       <use x="63.623046875" xlink:href="#BitstreamVeraSerif-Roman-20"/>
       <use x="95.41015625" xlink:href="#BitstreamVeraSerif-Roman-43"/>
       <use x="171.923828125" xlink:href="#BitstreamVeraSerif-Roman-50"/>
       <use x="239.193359375" xlink:href="#BitstreamVeraSerif-Roman-55"/>
       <use x="323.470703125" xlink:href="#BitstreamVeraSerif-Roman-20"/>
       <use x="355.2578125" xlink:href="#BitstreamVeraSerif-Roman-26"/>
       <use x="444.271484375" xlink:href="#BitstreamVeraSerif-Roman-20"/>
       <use x="476.05859375" xlink:href="#BitstreamVeraSerif-Roman-31"/>
       <use x="539.681640625" xlink:href="#BitstreamVeraSerif-Roman-20"/>
       <use x="571.46875" xlink:href="#BitstreamVeraSerif-Roman-47"/>
       <use x="651.3515625" xlink:href="#BitstreamVeraSerif-Roman-50"/>
       <use x="718.62109375" xlink:href="#BitstreamVeraSerif-Roman-55"/>
      </g>
     </g>
    </g>
    <g id="xtick_4">
     <g id="line2d_7">
      <g>
       <use style="stroke:#000000;stroke-width:0.5;" x="624.375" xlink:href="#m1f04558f3c" y="317.52"/>
      </g>
     </g>
     <g id="line2d_8">
      <g>
       <use style="stroke:#000000;stroke-width:0.5;" x="624.375" xlink:href="#m2c89f1ae36" y="43.2"/>
      </g>
     </g>
     <g id="text_4">
      <!-- 6 CPU &amp; 1 GPU -->
      <g transform="translate(564.158203125 332.704375)scale(0.15 -0.15)">
       <use xlink:href="#BitstreamVeraSerif-Roman-36"/>
       <use x="63.623046875" xlink:href="#BitstreamVeraSerif-Roman-20"/>
       <use x="95.41015625" xlink:href="#BitstreamVeraSerif-Roman-43"/>
       <use x="171.923828125" xlink:href="#BitstreamVeraSerif-Roman-50"/>
       <use x="239.193359375" xlink:href="#BitstreamVeraSerif-Roman-55"/>
       <use x="323.470703125" xlink:href="#BitstreamVeraSerif-Roman-20"/>
       <use x="355.2578125" xlink:href="#BitstreamVeraSerif-Roman-26"/>
       <use x="444.271484375" xlink:href="#BitstreamVeraSerif-Roman-20"/>
       <use x="476.05859375" xlink:href="#BitstreamVeraSerif-Roman-31"/>
       <use x="539.681640625" xlink:href="#BitstreamVeraSerif-Roman-20"/>
       <use x="571.46875" xlink:href="#BitstreamVeraSerif-Roman-47"/>
       <use x="651.3515625" xlink:href="#BitstreamVeraSerif-Roman-50"/>
       <use x="718.62109375" xlink:href="#BitstreamVeraSerif-Roman-55"/>
      </g>
      <!-- w/ subsystem merging -->
      <defs>
       <path d="M 35.40625 51.90625 
L 52.203125 51.90625 
L 52.203125 5.171875 
L 60.6875 5.171875 
L 60.6875 0 
L 43.21875 0 
L 43.21875 9.1875 
Q 40.71875 4 36.765625 1.28125 
Q 32.8125 -1.421875 27.59375 -1.421875 
Q 18.953125 -1.421875 14.875 3.484375 
Q 10.796875 8.40625 10.796875 18.890625 
L 10.796875 46.6875 
L 2.6875 46.6875 
L 2.6875 51.90625 
L 19.828125 51.90625 
L 19.828125 21.6875 
Q 19.828125 12.203125 22.140625 8.6875 
Q 24.46875 5.171875 30.421875 5.171875 
Q 36.671875 5.171875 39.9375 9.765625 
Q 43.21875 14.359375 43.21875 23.09375 
L 43.21875 46.6875 
L 35.40625 46.6875 
z
" id="BitstreamVeraSerif-Roman-75"/>
       <path d="M 10.796875 46.6875 
L 2.875 46.6875 
L 2.875 51.90625 
L 10.796875 51.90625 
L 10.796875 68.015625 
L 19.828125 68.015625 
L 19.828125 51.90625 
L 36.71875 51.90625 
L 36.71875 46.6875 
L 19.828125 46.6875 
L 19.828125 13.71875 
Q 19.828125 7.125 21.09375 5.265625 
Q 22.359375 3.421875 25.78125 3.421875 
Q 29.296875 3.421875 30.90625 5.484375 
Q 32.515625 7.5625 32.625 12.203125 
L 39.40625 12.203125 
Q 39.015625 5.125 35.546875 1.84375 
Q 32.078125 -1.421875 25 -1.421875 
Q 17.234375 -1.421875 14.015625 2.015625 
Q 10.796875 5.46875 10.796875 13.71875 
z
" id="BitstreamVeraSerif-Roman-74"/>
       <path d="M 11.53125 5.171875 
L 11.53125 70.796875 
L 2.875 70.796875 
L 2.875 75.984375 
L 20.515625 75.984375 
L 20.515625 43.796875 
Q 23.140625 48.6875 27.21875 51 
Q 31.296875 53.328125 37.3125 53.328125 
Q 46.875 53.328125 52.921875 45.75 
Q 58.984375 38.1875 58.984375 25.984375 
Q 58.984375 13.765625 52.921875 6.171875 
Q 46.875 -1.421875 37.3125 -1.421875 
Q 31.296875 -1.421875 27.21875 0.890625 
Q 23.140625 3.21875 20.515625 8.109375 
L 20.515625 0 
L 2.875 0 
L 2.875 5.171875 
z
M 20.515625 23.390625 
Q 20.515625 14.015625 24.09375 9.109375 
Q 27.6875 4.203125 34.515625 4.203125 
Q 41.40625 4.203125 44.9375 9.71875 
Q 48.484375 15.234375 48.484375 25.984375 
Q 48.484375 36.765625 44.9375 42.234375 
Q 41.40625 47.703125 34.515625 47.703125 
Q 27.6875 47.703125 24.09375 42.765625 
Q 20.515625 37.84375 20.515625 28.515625 
z
" id="BitstreamVeraSerif-Roman-62"/>
       <path d="M 9.71875 68.015625 
Q 9.71875 70.265625 11.34375 71.921875 
Q 12.984375 73.578125 15.28125 73.578125 
Q 17.53125 73.578125 19.15625 71.921875 
Q 20.796875 70.265625 20.796875 68.015625 
Q 20.796875 65.71875 19.1875 64.109375 
Q 17.578125 62.5 15.28125 62.5 
Q 12.984375 62.5 11.34375 64.109375 
Q 9.71875 65.71875 9.71875 68.015625 
M 21.1875 5.171875 
L 29.6875 5.171875 
L 29.6875 0 
L 3.609375 0 
L 3.609375 5.171875 
L 12.203125 5.171875 
L 12.203125 46.6875 
L 3.609375 46.6875 
L 3.609375 51.90625 
L 21.1875 51.90625 
z
" id="BitstreamVeraSerif-Roman-69"/>
       <path d="M 51.8125 41.796875 
Q 54.390625 47.515625 58.421875 50.421875 
Q 62.453125 53.328125 67.828125 53.328125 
Q 75.984375 53.328125 79.984375 48.265625 
Q 83.984375 43.21875 83.984375 33.015625 
L 83.984375 5.171875 
L 92.09375 5.171875 
L 92.09375 0 
L 67.1875 0 
L 67.1875 5.171875 
L 75 5.171875 
L 75 31.984375 
Q 75 39.9375 72.65625 43.3125 
Q 70.3125 46.6875 64.890625 46.6875 
Q 58.890625 46.6875 55.734375 42.140625 
Q 52.59375 37.59375 52.59375 28.90625 
L 52.59375 5.171875 
L 60.40625 5.171875 
L 60.40625 0 
L 35.796875 0 
L 35.796875 5.171875 
L 43.609375 5.171875 
L 43.609375 32.328125 
Q 43.609375 40.09375 41.265625 43.390625 
Q 38.921875 46.6875 33.5 46.6875 
Q 27.484375 46.6875 24.328125 42.140625 
Q 21.1875 37.59375 21.1875 28.90625 
L 21.1875 5.171875 
L 29 5.171875 
L 29 0 
L 4.109375 0 
L 4.109375 5.171875 
L 12.203125 5.171875 
L 12.203125 46.78125 
L 3.609375 46.78125 
L 3.609375 51.90625 
L 21.1875 51.90625 
L 21.1875 42.671875 
Q 23.6875 47.859375 27.53125 50.59375 
Q 31.390625 53.328125 36.28125 53.328125 
Q 42.328125 53.328125 46.375 50.3125 
Q 50.4375 47.3125 51.8125 41.796875 
" id="BitstreamVeraSerif-Roman-6d"/>
       <path d="M 25.875 72.90625 
L 33.6875 72.90625 
L 7.8125 -9.28125 
L 0 -9.28125 
z
" id="BitstreamVeraSerif-Roman-2f"/>
       <path d="M 52.484375 46.6875 
L 52.484375 1.125 
Q 52.484375 -10.0625 46.328125 -16.140625 
Q 40.1875 -22.21875 28.8125 -22.21875 
Q 23.6875 -22.21875 19 -21.28125 
Q 14.3125 -20.359375 10.015625 -18.5 
L 10.015625 -7.625 
L 14.703125 -7.625 
Q 15.578125 -12.703125 18.84375 -15.046875 
Q 22.125 -17.390625 28.21875 -17.390625 
Q 36.140625 -17.390625 39.8125 -12.921875 
Q 43.5 -8.453125 43.5 1.125 
L 43.5 8.109375 
Q 40.875 3.21875 36.796875 0.890625 
Q 32.71875 -1.421875 26.703125 -1.421875 
Q 17.140625 -1.421875 11.0625 6.171875 
Q 4.984375 13.765625 4.984375 25.984375 
Q 4.984375 38.1875 11.03125 45.75 
Q 17.09375 53.328125 26.703125 53.328125 
Q 32.71875 53.328125 36.796875 51 
Q 40.875 48.6875 43.5 43.796875 
L 43.5 51.90625 
L 61.078125 51.90625 
L 61.078125 46.6875 
z
M 43.5 28.515625 
Q 43.5 37.84375 39.90625 42.765625 
Q 36.328125 47.703125 29.5 47.703125 
Q 22.5625 47.703125 19.015625 42.234375 
Q 15.484375 36.765625 15.484375 25.984375 
Q 15.484375 15.234375 19.015625 9.71875 
Q 22.5625 4.203125 29.5 4.203125 
Q 36.328125 4.203125 39.90625 9.109375 
Q 43.5 14.015625 43.5 23.390625 
z
" id="BitstreamVeraSerif-Roman-67"/>
       <path d="M 48 51.90625 
L 61.28125 11.375 
L 73 46.6875 
L 65.484375 46.6875 
L 65.484375 51.90625 
L 84.28125 51.90625 
L 84.28125 46.6875 
L 78.515625 46.6875 
L 63.09375 0 
L 55.609375 0 
L 42.828125 38.8125 
L 29.984375 0 
L 22.796875 0 
L 7.421875 46.6875 
L 1.609375 46.6875 
L 1.609375 51.90625 
L 25.09375 51.90625 
L 25.09375 46.6875 
L 16.703125 46.6875 
L 28.328125 11.375 
L 41.703125 51.90625 
z
" id="BitstreamVeraSerif-Roman-77"/>
       <path d="M 5.609375 2.875 
L 5.609375 14.984375 
L 10.796875 14.984375 
Q 10.984375 9.1875 14.421875 6.296875 
Q 17.875 3.421875 24.609375 3.421875 
Q 30.671875 3.421875 33.84375 5.6875 
Q 37.015625 7.953125 37.015625 12.3125 
Q 37.015625 15.71875 34.6875 17.8125 
Q 32.375 19.921875 24.90625 22.3125 
L 18.40625 24.515625 
Q 11.71875 26.65625 8.71875 29.875 
Q 5.71875 33.109375 5.71875 38.09375 
Q 5.71875 45.21875 10.9375 49.265625 
Q 16.15625 53.328125 25.390625 53.328125 
Q 29.5 53.328125 34.03125 52.25 
Q 38.578125 51.171875 43.40625 49.125 
L 43.40625 37.796875 
L 38.234375 37.796875 
Q 38.03125 42.828125 34.703125 45.65625 
Q 31.390625 48.484375 25.6875 48.484375 
Q 20.015625 48.484375 17.109375 46.484375 
Q 14.203125 44.484375 14.203125 40.484375 
Q 14.203125 37.203125 16.40625 35.21875 
Q 18.609375 33.25 25.203125 31.203125 
L 32.328125 29 
Q 39.703125 26.703125 42.9375 23.265625 
Q 46.1875 19.828125 46.1875 14.40625 
Q 46.1875 7.03125 40.546875 2.796875 
Q 34.90625 -1.421875 25 -1.421875 
Q 19.96875 -1.421875 15.1875 -0.34375 
Q 10.40625 0.734375 5.609375 2.875 
" id="BitstreamVeraSerif-Roman-73"/>
       <path d="M 54.203125 25 
L 15.484375 25 
L 15.484375 24.609375 
Q 15.484375 14.109375 19.4375 8.765625 
Q 23.390625 3.421875 31.109375 3.421875 
Q 37.015625 3.421875 40.796875 6.515625 
Q 44.578125 9.625 46.09375 15.71875 
L 53.328125 15.71875 
Q 51.171875 7.171875 45.375 2.875 
Q 39.59375 -1.421875 30.171875 -1.421875 
Q 18.796875 -1.421875 11.890625 6.078125 
Q 4.984375 13.578125 4.984375 25.984375 
Q 4.984375 38.28125 11.765625 45.796875 
Q 18.5625 53.328125 29.59375 53.328125 
Q 41.359375 53.328125 47.65625 46.0625 
Q 53.953125 38.8125 54.203125 25 
M 43.609375 30.171875 
Q 43.3125 39.265625 39.765625 43.875 
Q 36.234375 48.484375 29.59375 48.484375 
Q 23.390625 48.484375 19.828125 43.84375 
Q 16.265625 39.203125 15.484375 30.171875 
z
" id="BitstreamVeraSerif-Roman-65"/>
       <path d="M 47.796875 52 
L 47.796875 39.015625 
L 42.625 39.015625 
Q 42.390625 42.875 40.484375 44.78125 
Q 38.578125 46.6875 34.90625 46.6875 
Q 28.265625 46.6875 24.71875 42.09375 
Q 21.1875 37.5 21.1875 28.90625 
L 21.1875 5.171875 
L 31.59375 5.171875 
L 31.59375 0 
L 4.109375 0 
L 4.109375 5.171875 
L 12.203125 5.171875 
L 12.203125 46.78125 
L 3.609375 46.78125 
L 3.609375 51.90625 
L 21.1875 51.90625 
L 21.1875 42.671875 
Q 23.828125 48.09375 27.96875 50.703125 
Q 32.125 53.328125 38.09375 53.328125 
Q 40.28125 53.328125 42.703125 52.984375 
Q 45.125 52.640625 47.796875 52 
" id="BitstreamVeraSerif-Roman-72"/>
      </defs>
      <g transform="translate(538.714453125 349.50109375)scale(0.15 -0.15)">
       <use xlink:href="#BitstreamVeraSerif-Roman-77"/>
       <use x="85.595703125" xlink:href="#BitstreamVeraSerif-Roman-2f"/>
       <use x="119.287109375" xlink:href="#BitstreamVeraSerif-Roman-20"/>
       <use x="151.07421875" xlink:href="#BitstreamVeraSerif-Roman-73"/>
       <use x="202.392578125" xlink:href="#BitstreamVeraSerif-Roman-75"/>
       <use x="266.796875" xlink:href="#BitstreamVeraSerif-Roman-62"/>
       <use x="330.810546875" xlink:href="#BitstreamVeraSerif-Roman-73"/>
       <use x="382.12890625" xlink:href="#BitstreamVeraSerif-Roman-79"/>
       <use x="438.623046875" xlink:href="#BitstreamVeraSerif-Roman-73"/>
       <use x="489.94140625" xlink:href="#BitstreamVeraSerif-Roman-74"/>
       <use x="530.126953125" xlink:href="#BitstreamVeraSerif-Roman-65"/>
       <use x="589.306640625" xlink:href="#BitstreamVeraSerif-Roman-6d"/>
       <use x="684.130859375" xlink:href="#BitstreamVeraSerif-Roman-20"/>
       <use x="715.91796875" xlink:href="#BitstreamVeraSerif-Roman-6d"/>
       <use x="810.7421875" xlink:href="#BitstreamVeraSerif-Roman-65"/>
       <use x="869.921875" xlink:href="#BitstreamVeraSerif-Roman-72"/>
       <use x="917.724609375" xlink:href="#BitstreamVeraSerif-Roman-67"/>
       <use x="981.73828125" xlink:href="#BitstreamVeraSerif-Roman-69"/>
       <use x="1013.720703125" xlink:href="#BitstreamVeraSerif-Roman-6e"/>
       <use x="1078.125" xlink:href="#BitstreamVeraSerif-Roman-67"/>
      </g>
     </g>
    </g>
   </g>
   <g id="matplotlib.axis_2">
    <g id="ytick_1">
     <g id="line2d_9">
      <path clip-path="url(#pa458aa53d7)" d="M 55.8 317.52 
L 705.6 317.52 
" style="fill:none;stroke:#ffffff;stroke-linecap:square;"/>
     </g>
     <g id="line2d_10">
      <defs>
       <path d="M 0 0 
L 4 0 
" id="m4ae916aacb" style="stroke:#000000;stroke-width:0.5;"/>
      </defs>
      <g>
       <use style="stroke:#000000;stroke-width:0.5;" x="55.8" xlink:href="#m4ae916aacb" y="317.52"/>
      </g>
     </g>
     <g id="line2d_11">
      <defs>
       <path d="M 0 0 
L -4 0 
" id="mc4bdf815f3" style="stroke:#000000;stroke-width:0.5;"/>
      </defs>
      <g>
       <use style="stroke:#000000;stroke-width:0.5;" x="705.6" xlink:href="#mc4bdf815f3" y="317.52"/>
      </g>
     </g>
     <g id="text_5">
      <!-- 0 -->
      <defs>
       <path d="M 31.78125 3.421875 
Q 39.265625 3.421875 42.96875 11.625 
Q 46.6875 19.828125 46.6875 36.375 
Q 46.6875 52.984375 42.96875 61.1875 
Q 39.265625 69.390625 31.78125 69.390625 
Q 24.3125 69.390625 20.59375 61.1875 
Q 16.890625 52.984375 16.890625 36.375 
Q 16.890625 19.828125 20.59375 11.625 
Q 24.3125 3.421875 31.78125 3.421875 
M 31.78125 -1.421875 
Q 19.921875 -1.421875 13.25 8.53125 
Q 6.59375 18.5 6.59375 36.375 
Q 6.59375 54.296875 13.25 64.25 
Q 19.921875 74.21875 31.78125 74.21875 
Q 43.703125 74.21875 50.34375 64.25 
Q 56.984375 54.296875 56.984375 36.375 
Q 56.984375 18.5 50.34375 8.53125 
Q 43.703125 -1.421875 31.78125 -1.421875 
" id="BitstreamVeraSerif-Roman-30"/>
      </defs>
      <g transform="translate(42.8925 321.383125)scale(0.14 -0.14)">
       <use xlink:href="#BitstreamVeraSerif-Roman-30"/>
      </g>
     </g>
    </g>
    <g id="ytick_2">
     <g id="line2d_12">
      <path clip-path="url(#pa458aa53d7)" d="M 55.8 278.331429 
L 705.6 278.331429 
" style="fill:none;stroke:#ffffff;stroke-linecap:square;"/>
     </g>
     <g id="line2d_13">
      <g>
       <use style="stroke:#000000;stroke-width:0.5;" x="55.8" xlink:href="#m4ae916aacb" y="278.331428571"/>
      </g>
     </g>
     <g id="line2d_14">
      <g>
       <use style="stroke:#000000;stroke-width:0.5;" x="705.6" xlink:href="#mc4bdf815f3" y="278.331428571"/>
      </g>
     </g>
     <g id="text_6">
      <!-- 5 -->
      <defs>
       <path d="M 50.296875 72.90625 
L 50.296875 64.890625 
L 16.890625 64.890625 
L 16.890625 44 
Q 19.4375 45.75 22.828125 46.625 
Q 26.21875 47.515625 30.421875 47.515625 
Q 42.234375 47.515625 49.0625 40.96875 
Q 55.90625 34.421875 55.90625 23.09375 
Q 55.90625 11.53125 49 5.046875 
Q 42.09375 -1.421875 29.59375 -1.421875 
Q 24.5625 -1.421875 19.28125 -0.1875 
Q 14.015625 1.03125 8.5 3.515625 
L 8.5 17.671875 
L 14.015625 17.671875 
Q 14.453125 10.75 18.421875 7.078125 
Q 22.40625 3.421875 29.59375 3.421875 
Q 37.3125 3.421875 41.453125 8.5 
Q 45.609375 13.578125 45.609375 23.09375 
Q 45.609375 32.5625 41.484375 37.609375 
Q 37.359375 42.671875 29.59375 42.671875 
Q 25.203125 42.671875 21.84375 41.109375 
Q 18.5 39.546875 15.921875 36.28125 
L 11.71875 36.28125 
L 11.71875 72.90625 
z
" id="BitstreamVeraSerif-Roman-35"/>
      </defs>
      <g transform="translate(42.8925 282.194553571)scale(0.14 -0.14)">
       <use xlink:href="#BitstreamVeraSerif-Roman-35"/>
      </g>
     </g>
    </g>
    <g id="ytick_3">
     <g id="line2d_15">
      <path clip-path="url(#pa458aa53d7)" d="M 55.8 239.142857 
L 705.6 239.142857 
" style="fill:none;stroke:#ffffff;stroke-linecap:square;"/>
     </g>
     <g id="line2d_16">
      <g>
       <use style="stroke:#000000;stroke-width:0.5;" x="55.8" xlink:href="#m4ae916aacb" y="239.142857143"/>
      </g>
     </g>
     <g id="line2d_17">
      <g>
       <use style="stroke:#000000;stroke-width:0.5;" x="705.6" xlink:href="#mc4bdf815f3" y="239.142857143"/>
      </g>
     </g>
     <g id="text_7">
      <!-- 10 -->
      <g transform="translate(33.985 243.005982143)scale(0.14 -0.14)">
       <use xlink:href="#BitstreamVeraSerif-Roman-31"/>
       <use x="63.623046875" xlink:href="#BitstreamVeraSerif-Roman-30"/>
      </g>
     </g>
    </g>
    <g id="ytick_4">
     <g id="line2d_18">
      <path clip-path="url(#pa458aa53d7)" d="M 55.8 199.954286 
L 705.6 199.954286 
" style="fill:none;stroke:#ffffff;stroke-linecap:square;"/>
     </g>
     <g id="line2d_19">
      <g>
       <use style="stroke:#000000;stroke-width:0.5;" x="55.8" xlink:href="#m4ae916aacb" y="199.954285714"/>
      </g>
     </g>
     <g id="line2d_20">
      <g>
       <use style="stroke:#000000;stroke-width:0.5;" x="705.6" xlink:href="#mc4bdf815f3" y="199.954285714"/>
      </g>
     </g>
     <g id="text_8">
      <!-- 15 -->
      <g transform="translate(33.985 203.817410714)scale(0.14 -0.14)">
       <use xlink:href="#BitstreamVeraSerif-Roman-31"/>
       <use x="63.623046875" xlink:href="#BitstreamVeraSerif-Roman-35"/>
      </g>
     </g>
    </g>
    <g id="ytick_5">
     <g id="line2d_21">
      <path clip-path="url(#pa458aa53d7)" d="M 55.8 160.765714 
L 705.6 160.765714 
" style="fill:none;stroke:#ffffff;stroke-linecap:square;"/>
     </g>
     <g id="line2d_22">
      <g>
       <use style="stroke:#000000;stroke-width:0.5;" x="55.8" xlink:href="#m4ae916aacb" y="160.765714286"/>
      </g>
     </g>
     <g id="line2d_23">
      <g>
       <use style="stroke:#000000;stroke-width:0.5;" x="705.6" xlink:href="#mc4bdf815f3" y="160.765714286"/>
      </g>
     </g>
     <g id="text_9">
      <!-- 20 -->
      <defs>
       <path d="M 12.796875 55.515625 
L 7.328125 55.515625 
L 7.328125 68.5 
Q 12.546875 71.296875 17.84375 72.75 
Q 23.140625 74.21875 28.21875 74.21875 
Q 39.59375 74.21875 46.1875 68.703125 
Q 52.78125 63.1875 52.78125 53.71875 
Q 52.78125 43.015625 37.84375 28.125 
Q 36.671875 27 36.078125 26.421875 
L 17.671875 8.015625 
L 48.09375 8.015625 
L 48.09375 17 
L 53.8125 17 
L 53.8125 0 
L 6.78125 0 
L 6.78125 5.328125 
L 28.90625 27.390625 
Q 36.234375 34.71875 39.359375 40.84375 
Q 42.484375 46.96875 42.484375 53.71875 
Q 42.484375 61.078125 38.640625 65.234375 
Q 34.8125 69.390625 28.078125 69.390625 
Q 21.09375 69.390625 17.28125 65.921875 
Q 13.484375 62.453125 12.796875 55.515625 
" id="BitstreamVeraSerif-Roman-32"/>
      </defs>
      <g transform="translate(33.985 164.628839286)scale(0.14 -0.14)">
       <use xlink:href="#BitstreamVeraSerif-Roman-32"/>
       <use x="63.623046875" xlink:href="#BitstreamVeraSerif-Roman-30"/>
      </g>
     </g>
    </g>
    <g id="ytick_6">
     <g id="line2d_24">
      <path clip-path="url(#pa458aa53d7)" d="M 55.8 121.577143 
L 705.6 121.577143 
" style="fill:none;stroke:#ffffff;stroke-linecap:square;"/>
     </g>
     <g id="line2d_25">
      <g>
       <use style="stroke:#000000;stroke-width:0.5;" x="55.8" xlink:href="#m4ae916aacb" y="121.577142857"/>
      </g>
     </g>
     <g id="line2d_26">
      <g>
       <use style="stroke:#000000;stroke-width:0.5;" x="705.6" xlink:href="#mc4bdf815f3" y="121.577142857"/>
      </g>
     </g>
     <g id="text_10">
      <!-- 25 -->
      <g transform="translate(33.985 125.440267857)scale(0.14 -0.14)">
       <use xlink:href="#BitstreamVeraSerif-Roman-32"/>
       <use x="63.623046875" xlink:href="#BitstreamVeraSerif-Roman-35"/>
      </g>
     </g>
    </g>
    <g id="ytick_7">
     <g id="line2d_27">
      <path clip-path="url(#pa458aa53d7)" d="M 55.8 82.388571 
L 705.6 82.388571 
" style="fill:none;stroke:#ffffff;stroke-linecap:square;"/>
     </g>
     <g id="line2d_28">
      <g>
       <use style="stroke:#000000;stroke-width:0.5;" x="55.8" xlink:href="#m4ae916aacb" y="82.3885714286"/>
      </g>
     </g>
     <g id="line2d_29">
      <g>
       <use style="stroke:#000000;stroke-width:0.5;" x="705.6" xlink:href="#mc4bdf815f3" y="82.3885714286"/>
      </g>
     </g>
     <g id="text_11">
      <!-- 30 -->
      <defs>
       <path d="M 9.71875 69.828125 
Q 15.4375 71.96875 20.671875 73.09375 
Q 25.921875 74.21875 30.515625 74.21875 
Q 41.21875 74.21875 47.21875 69.59375 
Q 53.21875 64.984375 53.21875 56.78125 
Q 53.21875 50.203125 49.0625 45.78125 
Q 44.921875 41.359375 37.3125 39.796875 
Q 46.296875 38.53125 51.25 33.28125 
Q 56.203125 28.03125 56.203125 19.671875 
Q 56.203125 9.46875 49.34375 4.015625 
Q 42.484375 -1.421875 29.59375 -1.421875 
Q 23.875 -1.421875 18.421875 -0.1875 
Q 12.984375 1.03125 7.625 3.515625 
L 7.625 17.671875 
L 13.09375 17.671875 
Q 13.578125 10.640625 17.828125 7.03125 
Q 22.078125 3.421875 29.78125 3.421875 
Q 37.25 3.421875 41.578125 7.734375 
Q 45.90625 12.0625 45.90625 19.578125 
Q 45.90625 28.171875 41.453125 32.59375 
Q 37.015625 37.015625 28.421875 37.015625 
L 23.78125 37.015625 
L 23.78125 42 
L 26.21875 42 
Q 34.765625 42 39.03125 45.53125 
Q 43.3125 49.078125 43.3125 56.203125 
Q 43.3125 62.59375 39.796875 65.984375 
Q 36.28125 69.390625 29.6875 69.390625 
Q 23.09375 69.390625 19.453125 66.265625 
Q 15.828125 63.140625 15.1875 56.984375 
L 9.71875 56.984375 
z
" id="BitstreamVeraSerif-Roman-33"/>
      </defs>
      <g transform="translate(33.985 86.2516964286)scale(0.14 -0.14)">
       <use xlink:href="#BitstreamVeraSerif-Roman-33"/>
       <use x="63.623046875" xlink:href="#BitstreamVeraSerif-Roman-30"/>
      </g>
     </g>
    </g>
    <g id="ytick_8">
     <g id="line2d_30">
      <path clip-path="url(#pa458aa53d7)" d="M 55.8 43.2 
L 705.6 43.2 
" style="fill:none;stroke:#ffffff;stroke-linecap:square;"/>
     </g>
     <g id="line2d_31">
      <g>
       <use style="stroke:#000000;stroke-width:0.5;" x="55.8" xlink:href="#m4ae916aacb" y="43.2"/>
      </g>
     </g>
     <g id="line2d_32">
      <g>
       <use style="stroke:#000000;stroke-width:0.5;" x="705.6" xlink:href="#mc4bdf815f3" y="43.2"/>
      </g>
     </g>
     <g id="text_12">
      <!-- 35 -->
      <g transform="translate(33.985 47.063125)scale(0.14 -0.14)">
       <use xlink:href="#BitstreamVeraSerif-Roman-33"/>
       <use x="63.623046875" xlink:href="#BitstreamVeraSerif-Roman-35"/>
      </g>
     </g>
    </g>
    <g id="text_13">
     <!-- Time (min) -->
     <defs>
      <path d="M 7.078125 -15.578125 
L 7.078125 -10.796875 
Q 14.59375 -5.609375 17.890625 3.78125 
Q 21.1875 13.1875 21.1875 30.171875 
Q 21.1875 47.21875 17.890625 56.609375 
Q 14.59375 66.015625 7.078125 71.1875 
L 7.078125 75.984375 
Q 19 70.65625 25.046875 59.109375 
Q 31.109375 47.5625 31.109375 30.171875 
Q 31.109375 12.84375 25.046875 1.296875 
Q 19 -10.25 7.078125 -15.578125 
" id="BitstreamVeraSerif-Roman-29"/>
      <path d="M 19.09375 0 
L 19.09375 5.171875 
L 28.421875 5.171875 
L 28.421875 67.09375 
L 6.984375 67.09375 
L 6.984375 55.71875 
L 0.984375 55.71875 
L 0.984375 72.90625 
L 65.71875 72.90625 
L 65.71875 55.71875 
L 59.71875 55.71875 
L 59.71875 67.09375 
L 38.28125 67.09375 
L 38.28125 5.171875 
L 47.609375 5.171875 
L 47.609375 0 
z
" id="BitstreamVeraSerif-Roman-54"/>
      <path d="M 31.890625 -15.578125 
Q 20.015625 -10.25 13.953125 1.296875 
Q 7.90625 12.84375 7.90625 30.171875 
Q 7.90625 47.5625 13.953125 59.109375 
Q 20.015625 70.65625 31.890625 75.984375 
L 31.890625 71.1875 
Q 24.359375 66.015625 21.09375 56.609375 
Q 17.828125 47.21875 17.828125 30.171875 
Q 17.828125 13.1875 21.09375 3.78125 
Q 24.359375 -5.609375 31.890625 -10.796875 
z
" id="BitstreamVeraSerif-Roman-28"/>
     </defs>
     <g transform="translate(25.6575 224.65875)rotate(-90.0)scale(0.16 -0.16)">
      <use xlink:href="#BitstreamVeraSerif-Roman-54"/>
      <use x="66.69921875" xlink:href="#BitstreamVeraSerif-Roman-69"/>
      <use x="98.681640625" xlink:href="#BitstreamVeraSerif-Roman-6d"/>
      <use x="193.505859375" xlink:href="#BitstreamVeraSerif-Roman-65"/>
      <use x="252.685546875" xlink:href="#BitstreamVeraSerif-Roman-20"/>
      <use x="284.47265625" xlink:href="#BitstreamVeraSerif-Roman-28"/>
      <use x="323.486328125" xlink:href="#BitstreamVeraSerif-Roman-6d"/>
      <use x="418.310546875" xlink:href="#BitstreamVeraSerif-Roman-69"/>
      <use x="450.29296875" xlink:href="#BitstreamVeraSerif-Roman-6e"/>
      <use x="514.697265625" xlink:href="#BitstreamVeraSerif-Roman-29"/>
     </g>
    </g>
   </g>
   <g id="text_14">
    <!-- Cylinder Flow, 2D, Re=40,              -->
    <defs>
     <path d="M 32.8125 5.90625 
L 39.59375 5.90625 
Q 51.03125 5.90625 56.328125 13.234375 
Q 61.625 20.5625 61.625 36.53125 
Q 61.625 52.390625 56.34375 59.6875 
Q 51.078125 67 39.59375 67 
L 32.8125 67 
z
M 4.6875 0 
L 4.6875 5.90625 
L 14.015625 5.90625 
L 14.015625 67 
L 4.6875 67 
L 4.6875 72.90625 
L 42.09375 72.90625 
Q 61.71875 72.90625 72.109375 63.53125 
Q 82.515625 54.15625 82.515625 36.53125 
Q 82.515625 18.796875 72.09375 9.390625 
Q 61.671875 0 42.09375 0 
z
" id="BitstreamVeraSerif-Bold-44"/>
     <path d="M 28.078125 5.90625 
L 35.5 5.90625 
L 35.5 0 
L 3.421875 0 
L 3.421875 5.90625 
L 10.796875 5.90625 
L 10.796875 70.125 
L 3.421875 70.125 
L 3.421875 75.984375 
L 28.078125 75.984375 
z
" id="BitstreamVeraSerif-Bold-6c"/>
     <path d="M 74.515625 20.796875 
Q 71.625 9.515625 64.15625 4.046875 
Q 56.6875 -1.421875 44.09375 -1.421875 
Q 25.640625 -1.421875 14.921875 8.765625 
Q 4.203125 18.953125 4.203125 36.375 
Q 4.203125 53.859375 14.921875 64.03125 
Q 25.640625 74.21875 44.09375 74.21875 
Q 50.59375 74.21875 57.625 72.65625 
Q 64.65625 71.09375 72.515625 67.921875 
L 72.515625 50 
L 66.3125 50 
Q 64.40625 59.1875 59.375 63.75 
Q 54.34375 68.3125 46.09375 68.3125 
Q 35.453125 68.3125 30.265625 60.46875 
Q 25.09375 52.640625 25.09375 36.375 
Q 25.09375 20.125 30.265625 12.3125 
Q 35.453125 4.5 46.1875 4.5 
Q 53.46875 4.5 58.078125 8.546875 
Q 62.703125 12.59375 64.796875 20.796875 
z
" id="BitstreamVeraSerif-Bold-43"/>
     <path d="M 10.59375 25.78125 
L 73.1875 25.78125 
L 73.1875 14.703125 
L 10.59375 14.703125 
z
M 10.59375 48 
L 73.1875 48 
L 73.1875 36.921875 
L 10.59375 36.921875 
z
" id="BitstreamVeraSerif-Bold-3d"/>
     <path id="BitstreamVeraSerif-Bold-20"/>
     <path d="M 1.3125 -9.625 
Q 6.390625 -5.515625 8.78125 -0.4375 
Q 11.1875 4.640625 11.1875 11.375 
L 11.1875 15.578125 
L 25.09375 15.578125 
L 25.09375 15.1875 
Q 25.09375 4.390625 20.578125 -3.390625 
Q 16.0625 -11.1875 6.6875 -16.5 
z
" id="BitstreamVeraSerif-Bold-2c"/>
     <path d="M 31.203125 -11.71875 
Q 28.859375 -17.4375 25.53125 -19.828125 
Q 22.21875 -22.21875 16.609375 -22.21875 
Q 14.203125 -22.21875 11.265625 -21.671875 
Q 8.34375 -21.140625 4.890625 -20.125 
L 4.890625 -9.28125 
L 10.40625 -9.328125 
Q 10.546875 -13.09375 12.171875 -14.890625 
Q 13.8125 -16.703125 17.09375 -16.703125 
Q 20.265625 -16.703125 22.21875 -14.96875 
Q 24.171875 -13.234375 26.125 -8.40625 
L 26.90625 -6.59375 
L 4.296875 46 
L -1.3125 46 
L -1.3125 51.90625 
L 28.609375 51.90625 
L 28.609375 46 
L 22.40625 46 
L 35.59375 15.28125 
L 47.90625 46 
L 41.015625 46 
L 41.015625 51.90625 
L 60.5 51.90625 
L 60.5 46 
L 54.203125 46 
z
" id="BitstreamVeraSerif-Bold-79"/>
     <path d="M 13.1875 54.890625 
L 7.328125 54.890625 
L 7.328125 70.609375 
Q 13.28125 72.40625 19.109375 73.3125 
Q 24.953125 74.21875 30.90625 74.21875 
Q 44.828125 74.21875 52.609375 68.53125 
Q 60.40625 62.84375 60.40625 52.6875 
Q 60.40625 45.453125 56.109375 39.71875 
Q 51.8125 33.984375 39.703125 26.125 
L 19.390625 12.796875 
L 53.90625 12.796875 
L 53.90625 21.390625 
L 60.59375 21.390625 
L 60.59375 0 
L 6.6875 0 
L 6.6875 11.921875 
L 17.484375 19.390625 
Q 31.296875 28.90625 35.890625 35.59375 
Q 40.484375 42.28125 40.484375 51.21875 
Q 40.484375 59.671875 36.984375 64.078125 
Q 33.5 68.5 26.8125 68.5 
Q 21.046875 68.5 17.578125 65.015625 
Q 14.109375 61.53125 13.1875 54.890625 
" id="BitstreamVeraSerif-Bold-32"/>
     <path d="M 34.8125 4.296875 
Q 40.671875 4.296875 42.84375 9.609375 
Q 45.015625 14.9375 45.015625 36.375 
Q 45.015625 57.671875 42.84375 63.078125 
Q 40.671875 68.5 34.8125 68.5 
Q 28.953125 68.5 26.78125 63.171875 
Q 24.609375 57.859375 24.609375 36.375 
Q 24.609375 14.9375 26.78125 9.609375 
Q 28.953125 4.296875 34.8125 4.296875 
M 34.8125 -1.421875 
Q 20.21875 -1.421875 12.453125 8.3125 
Q 4.6875 18.0625 4.6875 36.375 
Q 4.6875 54.6875 12.453125 64.453125 
Q 20.21875 74.21875 34.8125 74.21875 
Q 49.359375 74.21875 57.125 64.453125 
Q 64.890625 54.6875 64.890625 36.375 
Q 64.890625 18.0625 57.125 8.3125 
Q 49.359375 -1.421875 34.8125 -1.421875 
" id="BitstreamVeraSerif-Bold-30"/>
     <path d="M 33.40625 4.109375 
Q 38.875 4.109375 41.09375 8.796875 
Q 43.3125 13.484375 43.3125 25.984375 
Q 43.3125 38.484375 41.109375 43.140625 
Q 38.921875 47.796875 33.40625 47.796875 
Q 27.875 47.796875 25.625 43.078125 
Q 23.390625 38.375 23.390625 25.984375 
Q 23.390625 13.578125 25.625 8.84375 
Q 27.875 4.109375 33.40625 4.109375 
M 33.40625 -1.421875 
Q 19.671875 -1.421875 11.890625 5.875 
Q 4.109375 13.1875 4.109375 25.984375 
Q 4.109375 38.8125 11.890625 46.0625 
Q 19.671875 53.328125 33.40625 53.328125 
Q 47.171875 53.328125 54.9375 46.0625 
Q 62.703125 38.8125 62.703125 25.984375 
Q 62.703125 13.1875 54.90625 5.875 
Q 47.125 -1.421875 33.40625 -1.421875 
" id="BitstreamVeraSerif-Bold-6f"/>
     <path d="M 42.921875 23.390625 
L 42.921875 28.515625 
Q 42.921875 37.59375 40.578125 41.640625 
Q 38.234375 45.703125 33.109375 45.703125 
Q 27.734375 45.703125 25.5625 41.421875 
Q 23.390625 37.15625 23.390625 25.984375 
Q 23.390625 14.796875 25.578125 10.5 
Q 27.78125 6.203125 33.109375 6.203125 
Q 38.234375 6.203125 40.578125 10.25 
Q 42.921875 14.3125 42.921875 23.390625 
M 60.203125 5.90625 
L 67.578125 5.90625 
L 67.578125 0 
L 42.921875 0 
L 42.921875 6.59375 
Q 40.71875 2.546875 36.984375 0.5625 
Q 33.25 -1.421875 27.78125 -1.421875 
Q 16.75 -1.421875 10.421875 5.90625 
Q 4.109375 13.234375 4.109375 25.984375 
Q 4.109375 38.765625 10.421875 46.046875 
Q 16.75 53.328125 27.78125 53.328125 
Q 33.25 53.328125 36.984375 51.34375 
Q 40.71875 49.359375 42.921875 45.3125 
L 42.921875 70.125 
L 35.5 70.125 
L 35.5 75.984375 
L 60.203125 75.984375 
z
" id="BitstreamVeraSerif-Bold-64"/>
     <path d="M 9.1875 66.609375 
Q 9.1875 70.5625 11.921875 73.265625 
Q 14.65625 75.984375 18.609375 75.984375 
Q 22.46875 75.984375 25.171875 73.265625 
Q 27.875 70.5625 27.875 66.609375 
Q 27.875 62.75 25.171875 60.03125 
Q 22.46875 57.328125 18.609375 57.328125 
Q 14.65625 57.328125 11.921875 60.015625 
Q 9.1875 62.703125 9.1875 66.609375 
M 28.078125 5.90625 
L 35.5 5.90625 
L 35.5 0 
L 3.421875 0 
L 3.421875 5.90625 
L 10.796875 5.90625 
L 10.796875 46 
L 3.421875 46 
L 3.421875 51.90625 
L 28.078125 51.90625 
z
" id="BitstreamVeraSerif-Bold-69"/>
     <path d="M 40.09375 29.296875 
Q 40.09375 39.546875 38.1875 43.671875 
Q 36.28125 47.796875 31.6875 47.796875 
Q 27.25 47.796875 25.3125 43.75 
Q 23.390625 39.703125 23.390625 30.171875 
L 23.390625 29.296875 
z
M 59.078125 23.484375 
L 23.390625 23.484375 
L 23.390625 23.09375 
Q 23.390625 13.03125 26.40625 8.5625 
Q 29.4375 4.109375 36.1875 4.109375 
Q 41.796875 4.109375 45.265625 7.078125 
Q 48.734375 10.0625 49.703125 15.71875 
L 57.8125 15.71875 
Q 55.71875 6.890625 49.46875 2.734375 
Q 43.21875 -1.421875 31.984375 -1.421875 
Q 18.5 -1.421875 11.296875 5.6875 
Q 4.109375 12.796875 4.109375 25.984375 
Q 4.109375 38.875 11.46875 46.09375 
Q 18.84375 53.328125 31.984375 53.328125 
Q 44.875 53.328125 51.75 45.734375 
Q 58.640625 38.140625 59.078125 23.484375 
" id="BitstreamVeraSerif-Bold-65"/>
     <path d="M 53.90625 51.90625 
L 65.71875 17.28125 
L 75.484375 46 
L 68.703125 46 
L 68.703125 51.90625 
L 88.09375 51.90625 
L 88.09375 46 
L 81.984375 46 
L 66.3125 0 
L 54.390625 0 
L 43.40625 32.515625 
L 32.328125 0 
L 20.515625 0 
L 4.78125 46 
L -0.875 46 
L -0.875 51.90625 
L 28.515625 51.90625 
L 28.515625 46 
L 22.40625 46 
L 31.984375 17.921875 
L 43.609375 51.90625 
z
" id="BitstreamVeraSerif-Bold-77"/>
     <path d="M 53.71875 52.484375 
L 53.71875 37.015625 
L 48.1875 37.015625 
Q 47.90625 41.15625 45.953125 43.1875 
Q 44 45.21875 40.28125 45.21875 
Q 34.625 45.21875 31.34375 40.234375 
Q 28.078125 35.25 28.078125 26.421875 
L 28.078125 5.90625 
L 37.5 5.90625 
L 37.5 0 
L 3.421875 0 
L 3.421875 5.90625 
L 10.796875 5.90625 
L 10.796875 46 
L 2.875 46 
L 2.875 51.90625 
L 28.078125 51.90625 
L 28.078125 42.671875 
Q 30.609375 48.09375 34.78125 50.703125 
Q 38.96875 53.328125 45.015625 53.328125 
Q 46.53125 53.328125 48.703125 53.09375 
Q 50.875 52.875 53.71875 52.484375 
" id="BitstreamVeraSerif-Bold-72"/>
     <path d="M 3.421875 0 
L 3.421875 5.90625 
L 10.796875 5.90625 
L 10.796875 46 
L 3.421875 46 
L 3.421875 51.90625 
L 28.078125 51.90625 
L 28.078125 44.578125 
Q 31.203125 49.21875 35.203125 51.265625 
Q 39.203125 53.328125 45.3125 53.328125 
Q 54.046875 53.328125 58.515625 48.171875 
Q 62.984375 43.015625 62.984375 33.015625 
L 62.984375 5.90625 
L 70.40625 5.90625 
L 70.40625 0 
L 39.40625 0 
L 39.40625 5.90625 
L 45.703125 5.90625 
L 45.703125 33.5 
Q 45.703125 40.09375 44.015625 42.65625 
Q 42.328125 45.21875 38.1875 45.21875 
Q 32.953125 45.21875 30.515625 41.375 
Q 28.078125 37.546875 28.078125 29.203125 
L 28.078125 5.90625 
L 34.421875 5.90625 
L 34.421875 0 
z
" id="BitstreamVeraSerif-Bold-6e"/>
     <path d="M 63.8125 0 
L 23.6875 0 
L 23.6875 5.90625 
L 34.515625 5.90625 
L 34.515625 19.1875 
L 4.109375 19.1875 
L 4.109375 24.8125 
L 34.625 74.21875 
L 52.984375 74.21875 
L 52.984375 25.484375 
L 65.484375 25.484375 
L 65.484375 19.1875 
L 52.984375 19.1875 
L 52.984375 5.90625 
L 63.8125 5.90625 
z
M 34.515625 25.484375 
L 34.515625 60.890625 
L 12.796875 25.484375 
z
" id="BitstreamVeraSerif-Bold-34"/>
     <path d="M 4.6875 0 
L 4.6875 5.90625 
L 14.015625 5.90625 
L 14.015625 67 
L 4.6875 67 
L 4.6875 72.90625 
L 69.671875 72.90625 
L 69.671875 55.71875 
L 62.984375 55.71875 
L 62.984375 66.21875 
L 32.90625 66.21875 
L 32.90625 42.828125 
L 51.421875 42.828125 
L 51.421875 52.09375 
L 58.109375 52.09375 
L 58.109375 26.90625 
L 51.421875 26.90625 
L 51.421875 36.1875 
L 32.90625 36.1875 
L 32.90625 5.90625 
L 44.390625 5.90625 
L 44.390625 0 
z
" id="BitstreamVeraSerif-Bold-46"/>
     <path d="M 53.078125 35.59375 
Q 57.421875 34.96875 60.390625 32.71875 
Q 63.375 30.46875 65.578125 26.21875 
L 76.21875 5.90625 
L 83.6875 5.90625 
L 83.6875 0 
L 59.71875 0 
L 48.09375 22.015625 
Q 44.734375 28.859375 42.359375 30.734375 
Q 39.984375 32.625 35.796875 32.625 
L 32.8125 32.625 
L 32.8125 5.90625 
L 42.1875 5.90625 
L 42.1875 0 
L 4.6875 0 
L 4.6875 5.90625 
L 14.015625 5.90625 
L 14.015625 67 
L 4.6875 67 
L 4.6875 72.90625 
L 46.296875 72.90625 
Q 58.984375 72.90625 65.890625 67.796875 
Q 72.796875 62.703125 72.796875 53.328125 
Q 72.796875 45.703125 67.890625 41.28125 
Q 62.984375 36.859375 53.078125 35.59375 
M 32.8125 38.484375 
L 39.203125 38.484375 
Q 46.046875 38.484375 49.734375 42.1875 
Q 53.421875 45.90625 53.421875 52.78125 
Q 53.421875 59.671875 49.734375 63.328125 
Q 46.046875 67 39.203125 67 
L 32.8125 67 
z
" id="BitstreamVeraSerif-Bold-52"/>
    </defs>
    <g transform="translate(207.75375 17.788)scale(0.18 -0.18)">
     <use xlink:href="#BitstreamVeraSerif-Bold-43"/>
     <use x="79.58984375" xlink:href="#BitstreamVeraSerif-Bold-79"/>
     <use x="137.6953125" xlink:href="#BitstreamVeraSerif-Bold-6c"/>
     <use x="175.68359375" xlink:href="#BitstreamVeraSerif-Bold-69"/>
     <use x="213.671875" xlink:href="#BitstreamVeraSerif-Bold-6e"/>
     <use x="286.376953125" xlink:href="#BitstreamVeraSerif-Bold-64"/>
     <use x="356.298828125" xlink:href="#BitstreamVeraSerif-Bold-65"/>
     <use x="419.921875" xlink:href="#BitstreamVeraSerif-Bold-72"/>
     <use x="472.607421875" xlink:href="#BitstreamVeraSerif-Bold-20"/>
     <use x="507.421875" xlink:href="#BitstreamVeraSerif-Bold-46"/>
     <use x="578.41796875" xlink:href="#BitstreamVeraSerif-Bold-6c"/>
     <use x="616.40625" xlink:href="#BitstreamVeraSerif-Bold-6f"/>
     <use x="683.10546875" xlink:href="#BitstreamVeraSerif-Bold-77"/>
     <use x="769.064453125" xlink:href="#BitstreamVeraSerif-Bold-2c"/>
     <use x="803.87890625" xlink:href="#BitstreamVeraSerif-Bold-20"/>
     <use x="838.693359375" xlink:href="#BitstreamVeraSerif-Bold-32"/>
     <use x="908.2734375" xlink:href="#BitstreamVeraSerif-Bold-44"/>
     <use x="994.9453125" xlink:href="#BitstreamVeraSerif-Bold-2c"/>
     <use x="1029.759765625" xlink:href="#BitstreamVeraSerif-Bold-20"/>
     <use x="1064.57421875" xlink:href="#BitstreamVeraSerif-Bold-52"/>
     <use x="1147.6796875" xlink:href="#BitstreamVeraSerif-Bold-65"/>
     <use x="1211.302734375" xlink:href="#BitstreamVeraSerif-Bold-3d"/>
     <use x="1295.091796875" xlink:href="#BitstreamVeraSerif-Bold-34"/>
     <use x="1364.671875" xlink:href="#BitstreamVeraSerif-Bold-30"/>
     <use x="1434.251953125" xlink:href="#BitstreamVeraSerif-Bold-2c"/>
     <use x="1469.06640625" xlink:href="#BitstreamVeraSerif-Bold-20"/>
     <use x="1503.880859375" xlink:href="#BitstreamVeraSerif-Bold-20"/>
     <use x="1538.6953125" xlink:href="#BitstreamVeraSerif-Bold-20"/>
     <use x="1573.509765625" xlink:href="#BitstreamVeraSerif-Bold-20"/>
     <use x="1608.32421875" xlink:href="#BitstreamVeraSerif-Bold-20"/>
     <use x="1643.138671875" xlink:href="#BitstreamVeraSerif-Bold-20"/>
     <use x="1677.953125" xlink:href="#BitstreamVeraSerif-Bold-20"/>
     <use x="1712.767578125" xlink:href="#BitstreamVeraSerif-Bold-20"/>
     <use x="1747.58203125" xlink:href="#BitstreamVeraSerif-Bold-20"/>
     <use x="1782.396484375" xlink:href="#BitstreamVeraSerif-Bold-20"/>
     <use x="1817.2109375" xlink:href="#BitstreamVeraSerif-Bold-20"/>
     <use x="1852.025390625" xlink:href="#BitstreamVeraSerif-Bold-20"/>
     <use x="1886.83984375" xlink:href="#BitstreamVeraSerif-Bold-20"/>
    </g>
    <!-- PetIBM + AmgX, with Varying Numbers of CPU Cores and GPUs -->
    <defs>
     <path d="M 12.703125 67 
L 3.421875 67 
L 3.421875 72.90625 
L 40.921875 72.90625 
L 40.921875 67 
L 31.59375 67 
L 31.59375 30.515625 
Q 31.59375 16.890625 35.84375 11.4375 
Q 40.09375 6 50.390625 6 
Q 60.453125 6 64.671875 11.5 
Q 68.890625 17 68.890625 30.515625 
L 68.890625 67 
L 59.625 67 
L 59.625 72.90625 
L 85.015625 72.90625 
L 85.015625 67 
L 75.6875 67 
L 75.6875 29.5 
Q 75.6875 12.796875 68.453125 5.6875 
Q 61.234375 -1.421875 44.1875 -1.421875 
Q 27.25 -1.421875 19.96875 5.75 
Q 12.703125 12.9375 12.703125 29.59375 
z
" id="BitstreamVeraSerif-Bold-55"/>
     <path d="M 33.890625 28.078125 
L 18.703125 5.90625 
L 27.6875 5.90625 
L 27.6875 0 
L 1.8125 0 
L 1.8125 5.90625 
L 10.796875 5.90625 
L 29.984375 33.796875 
L 7.171875 67 
L 0.484375 67 
L 0.484375 72.90625 
L 36.71875 72.90625 
L 36.71875 67 
L 28.71875 67 
L 42.828125 46.484375 
L 56.78125 67 
L 48.296875 67 
L 48.296875 72.90625 
L 73.6875 72.90625 
L 73.6875 67 
L 64.703125 67 
L 46.6875 40.828125 
L 70.609375 5.90625 
L 77.484375 5.90625 
L 77.484375 0 
L 41.109375 0 
L 41.109375 5.90625 
L 49.21875 5.90625 
z
" id="BitstreamVeraSerif-Bold-58"/>
     <path d="M 60.6875 43.40625 
Q 64.3125 48.578125 68.5 50.953125 
Q 72.703125 53.328125 78.328125 53.328125 
Q 87.25 53.328125 91.671875 48.265625 
Q 96.09375 43.21875 96.09375 33.015625 
L 96.09375 5.90625 
L 103.515625 5.90625 
L 103.515625 0 
L 72.609375 0 
L 72.609375 5.90625 
L 78.8125 5.90625 
L 78.8125 30.421875 
Q 78.8125 40.140625 77.3125 42.671875 
Q 75.828125 45.21875 71.78125 45.21875 
Q 67.1875 45.21875 64.640625 41.671875 
Q 62.109375 38.140625 62.109375 31.59375 
L 62.109375 5.90625 
L 68.3125 5.90625 
L 68.3125 0 
L 38.625 0 
L 38.625 5.90625 
L 44.828125 5.90625 
L 44.828125 30.421875 
Q 44.828125 40.140625 43.3125 42.671875 
Q 41.796875 45.21875 37.796875 45.21875 
Q 33.15625 45.21875 30.609375 41.671875 
Q 28.078125 38.140625 28.078125 31.59375 
L 28.078125 5.90625 
L 34.28125 5.90625 
L 34.28125 0 
L 3.421875 0 
L 3.421875 5.90625 
L 10.796875 5.90625 
L 10.796875 46 
L 3.421875 46 
L 3.421875 51.90625 
L 28.078125 51.90625 
L 28.078125 44.578125 
Q 31.109375 49.125 35.015625 51.21875 
Q 38.921875 53.328125 44.28125 53.328125 
Q 50.640625 53.328125 54.59375 50.90625 
Q 58.546875 48.484375 60.6875 43.40625 
" id="BitstreamVeraSerif-Bold-6d"/>
     <path d="M 4.390625 0 
L 4.390625 5.90625 
L 13.71875 5.90625 
L 13.71875 67 
L 4.390625 67 
L 4.390625 72.90625 
L 27.203125 72.90625 
L 71.1875 21.296875 
L 71.1875 67 
L 61.921875 67 
L 61.921875 72.90625 
L 87.40625 72.90625 
L 87.40625 67 
L 78.078125 67 
L 78.078125 0 
L 65.28125 0 
L 20.609375 52.6875 
L 20.609375 5.90625 
L 29.890625 5.90625 
L 29.890625 0 
z
" id="BitstreamVeraSerif-Bold-4e"/>
     <path d="M 9.90625 46 
L 2.390625 46 
L 2.390625 51.90625 
L 9.90625 51.90625 
L 9.90625 68.015625 
L 27.203125 68.015625 
L 27.203125 51.90625 
L 41.609375 51.90625 
L 41.609375 46 
L 27.203125 46 
L 27.203125 14.203125 
Q 27.203125 7.421875 28.265625 5.765625 
Q 29.34375 4.109375 32.171875 4.109375 
Q 35.296875 4.109375 36.8125 6.203125 
Q 38.328125 8.296875 38.421875 12.703125 
L 45.703125 12.703125 
Q 45.265625 4.890625 41.421875 1.734375 
Q 37.59375 -1.421875 28.21875 -1.421875 
Q 17.53125 -1.421875 13.71875 1.921875 
Q 9.90625 5.28125 9.90625 14.203125 
z
" id="BitstreamVeraSerif-Bold-74"/>
     <path d="M 68.796875 50 
Q 66.609375 59.671875 61.46875 63.984375 
Q 56.34375 68.3125 47.015625 68.3125 
Q 35.6875 68.3125 30.390625 60.625 
Q 25.09375 52.9375 25.09375 36.375 
Q 25.09375 19.96875 30.171875 12.234375 
Q 35.25 4.5 46 4.5 
Q 50.09375 4.5 53.609375 5.421875 
Q 57.125 6.34375 60.015625 8.203125 
L 60.015625 28.21875 
L 51.21875 28.21875 
L 51.21875 34.078125 
L 77.484375 34.078125 
L 77.484375 6.109375 
Q 69.28125 2.296875 61.109375 0.4375 
Q 52.9375 -1.421875 44.390625 -1.421875 
Q 25.640625 -1.421875 14.921875 8.6875 
Q 4.203125 18.796875 4.203125 36.375 
Q 4.203125 54 14.921875 64.109375 
Q 25.640625 74.21875 44.390625 74.21875 
Q 52.203125 74.21875 59.765625 72.65625 
Q 67.328125 71.09375 75 67.921875 
L 75 50 
z
" id="BitstreamVeraSerif-Bold-47"/>
     <path d="M 48.390625 62.984375 
L 42.921875 62.984375 
Q 42.53125 66.796875 40.703125 68.65625 
Q 38.875 70.515625 35.5 70.515625 
Q 31.59375 70.515625 29.828125 67.703125 
Q 28.078125 64.890625 28.078125 58.59375 
L 28.078125 51.90625 
L 41.109375 51.90625 
L 41.109375 46 
L 28.078125 46 
L 28.078125 5.90625 
L 38.09375 5.90625 
L 38.09375 0 
L 3.421875 0 
L 3.421875 5.90625 
L 10.796875 5.90625 
L 10.796875 46 
L 3.078125 46 
L 3.078125 51.90625 
L 10.796875 51.90625 
L 10.796875 58.40625 
Q 10.796875 67.046875 16.3125 71.515625 
Q 21.828125 75.984375 32.515625 75.984375 
Q 36.671875 75.984375 40.625 75.515625 
Q 44.578125 75.046875 48.390625 74.125 
z
" id="BitstreamVeraSerif-Bold-66"/>
     <path d="M 79 72.90625 
L 79 67 
L 72.90625 67 
L 45.40625 0 
L 33.796875 0 
L 6.296875 67 
L -0.59375 67 
L -0.59375 72.90625 
L 33.59375 72.90625 
L 33.59375 67 
L 26.515625 67 
L 46.1875 18.703125 
L 66.015625 67 
L 57.328125 67 
L 57.328125 72.90625 
z
" id="BitstreamVeraSerif-Bold-56"/>
     <path d="M 60.203125 46 
L 60.203125 0.6875 
Q 60.203125 -10.25 52.40625 -16.234375 
Q 44.625 -22.21875 30.421875 -22.21875 
Q 25.25 -22.21875 19.921875 -21.40625 
Q 14.59375 -20.609375 8.984375 -19 
L 8.984375 -6.59375 
L 14.5 -6.59375 
Q 15.234375 -11.71875 18.625 -14.203125 
Q 22.015625 -16.703125 28.328125 -16.703125 
Q 36.328125 -16.703125 39.625 -12.859375 
Q 42.921875 -9.03125 42.921875 0.6875 
L 42.921875 6.59375 
Q 40.71875 2.546875 36.984375 0.5625 
Q 33.25 -1.421875 27.78125 -1.421875 
Q 16.75 -1.421875 10.421875 5.90625 
Q 4.109375 13.234375 4.109375 25.984375 
Q 4.109375 38.765625 10.421875 46.046875 
Q 16.75 53.328125 27.78125 53.328125 
Q 33.25 53.328125 36.984375 51.34375 
Q 40.71875 49.359375 42.921875 45.3125 
L 42.921875 51.90625 
L 67.578125 51.90625 
L 67.578125 46 
z
M 42.921875 28.515625 
Q 42.921875 37.59375 40.578125 41.640625 
Q 38.234375 45.703125 33.109375 45.703125 
Q 27.734375 45.703125 25.5625 41.421875 
Q 23.390625 37.15625 23.390625 25.984375 
Q 23.390625 14.796875 25.578125 10.5 
Q 27.78125 6.203125 33.109375 6.203125 
Q 38.234375 6.203125 40.578125 10.25 
Q 42.921875 14.3125 42.921875 23.390625 
z
" id="BitstreamVeraSerif-Bold-67"/>
     <path d="M 4.6875 0 
L 4.6875 5.90625 
L 14.015625 5.90625 
L 14.015625 67 
L 4.6875 67 
L 4.6875 72.90625 
L 42.1875 72.90625 
L 42.1875 67 
L 32.8125 67 
L 32.8125 5.90625 
L 42.1875 5.90625 
L 42.1875 0 
z
" id="BitstreamVeraSerif-Bold-49"/>
     <path d="M 4.6875 0 
L 4.6875 5.90625 
L 14.015625 5.90625 
L 14.015625 67 
L 4.6875 67 
L 4.6875 72.90625 
L 47.90625 72.90625 
Q 61.234375 72.90625 67.921875 68.40625 
Q 74.609375 63.921875 74.609375 54.890625 
Q 74.609375 48.390625 69.984375 44.578125 
Q 65.375 40.765625 56.296875 39.796875 
Q 67.28125 38.765625 73.140625 33.9375 
Q 79 29.109375 79 21.09375 
Q 79 10.25 70.8125 5.125 
Q 62.640625 0 45.21875 0 
z
M 32.8125 42.484375 
L 39.203125 42.484375 
Q 47.609375 42.484375 51.65625 45.53125 
Q 55.71875 48.578125 55.71875 54.890625 
Q 55.71875 61.234375 51.78125 64.109375 
Q 47.859375 67 39.203125 67 
L 32.8125 67 
z
M 32.8125 5.90625 
L 39.796875 5.90625 
Q 49.125 5.90625 53.609375 9.609375 
Q 58.109375 13.328125 58.109375 21.09375 
Q 58.109375 28.90625 53.5625 32.765625 
Q 49.03125 36.625 39.796875 36.625 
L 32.8125 36.625 
z
" id="BitstreamVeraSerif-Bold-42"/>
     <path d="M 4.203125 0 
L 4.203125 5.90625 
L 13.484375 5.90625 
L 13.484375 67 
L 4.203125 67 
L 4.203125 72.90625 
L 34.28125 72.90625 
L 55.078125 26.125 
L 75.984375 72.90625 
L 106 72.90625 
L 106 67 
L 96.6875 67 
L 96.6875 5.90625 
L 106 5.90625 
L 106 0 
L 68.5 0 
L 68.5 5.90625 
L 77.78125 5.90625 
L 77.78125 61.53125 
L 55.171875 10.6875 
L 42.828125 10.6875 
L 20.3125 61.53125 
L 20.3125 5.90625 
L 29.59375 5.90625 
L 29.59375 0 
z
" id="BitstreamVeraSerif-Bold-4d"/>
     <path d="M 9.71875 5.90625 
L 9.71875 70.125 
L 2.296875 70.125 
L 2.296875 75.984375 
L 27 75.984375 
L 27 45.3125 
Q 29.203125 49.359375 32.90625 51.34375 
Q 36.625 53.328125 42.09375 53.328125 
Q 53.171875 53.328125 59.546875 46.015625 
Q 65.921875 38.71875 65.921875 25.984375 
Q 65.921875 13.234375 59.546875 5.90625 
Q 53.171875 -1.421875 42.09375 -1.421875 
Q 36.625 -1.421875 32.90625 0.5625 
Q 29.203125 2.546875 27 6.59375 
L 27 0 
L 2.296875 0 
L 2.296875 5.90625 
z
M 27 23.390625 
Q 27 14.3125 29.3125 10.25 
Q 31.640625 6.203125 36.8125 6.203125 
Q 42.140625 6.203125 44.3125 10.5 
Q 46.484375 14.796875 46.484375 25.984375 
Q 46.484375 37.15625 44.3125 41.421875 
Q 42.140625 45.703125 36.8125 45.703125 
Q 31.640625 45.703125 29.3125 41.640625 
Q 27 37.59375 27 28.515625 
z
" id="BitstreamVeraSerif-Bold-62"/>
     <path d="M 61.921875 51.90625 
L 61.921875 5.90625 
L 69.28125 5.90625 
L 69.28125 0 
L 44.578125 0 
L 44.578125 7.328125 
Q 41.5 2.6875 37.5 0.625 
Q 33.5 -1.421875 27.390625 -1.421875 
Q 18.65625 -1.421875 14.1875 3.734375 
Q 9.71875 8.890625 9.71875 18.890625 
L 9.71875 46 
L 2.296875 46 
L 2.296875 51.90625 
L 27 51.90625 
L 27 21.578125 
Q 27 11.921875 28.609375 9.296875 
Q 30.21875 6.6875 34.515625 6.6875 
Q 39.75 6.6875 42.15625 10.546875 
Q 44.578125 14.40625 44.578125 22.796875 
L 44.578125 46 
L 38.28125 46 
L 38.28125 51.90625 
z
" id="BitstreamVeraSerif-Bold-75"/>
     <path d="M 4.6875 1.515625 
L 4.6875 16.015625 
L 10.203125 16.015625 
Q 10.890625 10.203125 14.546875 7.15625 
Q 18.21875 4.109375 24.515625 4.109375 
Q 29.78125 4.109375 32.59375 5.9375 
Q 35.40625 7.765625 35.40625 11.1875 
Q 35.40625 14.3125 33.625 16.015625 
Q 31.84375 17.71875 26.703125 19 
L 19.578125 20.796875 
Q 11.53125 22.796875 7.90625 26.53125 
Q 4.296875 30.28125 4.296875 36.625 
Q 4.296875 45.0625 10.15625 49.1875 
Q 16.015625 53.328125 28.21875 53.328125 
Q 32.8125 53.328125 38.015625 52.5625 
Q 43.21875 51.8125 49.515625 50.203125 
L 49.515625 37.109375 
L 44 37.109375 
Q 43.5625 42.4375 40.203125 45.109375 
Q 36.859375 47.796875 30.609375 47.796875 
Q 25.34375 47.796875 22.625 46.109375 
Q 19.921875 44.4375 19.921875 41.21875 
Q 19.921875 38.578125 21.484375 37.0625 
Q 23.046875 35.546875 27.09375 34.515625 
L 34.1875 32.71875 
Q 44.390625 30.125 48.296875 26.3125 
Q 52.203125 22.515625 52.203125 15.71875 
Q 52.203125 6.9375 45.921875 2.75 
Q 39.65625 -1.421875 26.421875 -1.421875 
Q 21.578125 -1.421875 16.15625 -0.6875 
Q 10.75 0.046875 4.6875 1.515625 
" id="BitstreamVeraSerif-Bold-73"/>
     <path d="M 4.6875 0 
L 4.6875 5.90625 
L 14.015625 5.90625 
L 14.015625 67 
L 4.6875 67 
L 4.6875 72.90625 
L 46.1875 72.90625 
Q 58.34375 72.90625 65.515625 67.109375 
Q 72.703125 61.328125 72.703125 51.609375 
Q 72.703125 41.84375 65.5 36 
Q 58.296875 30.171875 46.1875 30.171875 
L 32.8125 30.171875 
L 32.8125 5.90625 
L 44.578125 5.90625 
L 44.578125 0 
z
M 32.8125 36.078125 
L 38.28125 36.078125 
Q 44.625 36.078125 48.40625 40.296875 
Q 52.203125 44.53125 52.203125 51.609375 
Q 52.203125 58.640625 48.4375 62.8125 
Q 44.671875 67 38.28125 67 
L 32.8125 67 
z
" id="BitstreamVeraSerif-Bold-50"/>
     <path d="M 47.515625 62.703125 
L 47.515625 37.015625 
L 73.1875 37.015625 
L 73.1875 25.78125 
L 47.515625 25.78125 
L 47.515625 0.09375 
L 36.28125 0.09375 
L 36.28125 25.78125 
L 10.59375 25.78125 
L 10.59375 37.015625 
L 36.28125 37.015625 
L 36.28125 62.703125 
z
" id="BitstreamVeraSerif-Bold-2b"/>
     <path d="M 3.421875 0 
L 3.421875 5.90625 
L 10.796875 5.90625 
L 10.796875 70.125 
L 3.078125 70.125 
L 3.078125 75.984375 
L 28.078125 75.984375 
L 28.078125 44.578125 
Q 31.203125 49.21875 35.203125 51.265625 
Q 39.203125 53.328125 45.3125 53.328125 
Q 54.046875 53.328125 58.515625 48.171875 
Q 62.984375 43.015625 62.984375 33.015625 
L 62.984375 5.90625 
L 70.40625 5.90625 
L 70.40625 0 
L 39.40625 0 
L 39.40625 5.90625 
L 45.703125 5.90625 
L 45.703125 33.5 
Q 45.703125 40.09375 44.015625 42.65625 
Q 42.328125 45.21875 38.1875 45.21875 
Q 32.953125 45.21875 30.515625 41.375 
Q 28.078125 37.546875 28.078125 29.203125 
L 28.078125 5.90625 
L 34.421875 5.90625 
L 34.421875 0 
z
" id="BitstreamVeraSerif-Bold-68"/>
     <path d="M 55.078125 31.890625 
L 55.078125 5.90625 
L 62.5 5.90625 
L 62.5 0 
L 37.796875 0 
L 37.796875 6.59375 
Q 34.375 2.484375 30.171875 0.53125 
Q 25.984375 -1.421875 20.609375 -1.421875 
Q 12.640625 -1.421875 8.375 2.84375 
Q 4.109375 7.125 4.109375 15.09375 
Q 4.109375 23.828125 10.234375 28.171875 
Q 16.359375 32.515625 28.71875 32.515625 
L 37.796875 32.515625 
L 37.796875 35.59375 
Q 37.796875 41.890625 34.8125 44.890625 
Q 31.84375 47.90625 25.59375 47.90625 
Q 20.40625 47.90625 17.59375 45.78125 
Q 14.796875 43.65625 13.625 38.8125 
L 8.109375 38.8125 
L 8.109375 50 
Q 12.75 51.65625 17.71875 52.484375 
Q 22.703125 53.328125 28.21875 53.328125 
Q 42.140625 53.328125 48.609375 48.140625 
Q 55.078125 42.96875 55.078125 31.890625 
M 37.796875 16.3125 
L 37.796875 26.703125 
L 31.296875 26.703125 
Q 26.46875 26.703125 23.875 24.0625 
Q 21.296875 21.4375 21.296875 16.5 
Q 21.296875 11.578125 23.171875 9.125 
Q 25.046875 6.6875 28.90625 6.6875 
Q 32.90625 6.6875 35.34375 9.328125 
Q 37.796875 11.96875 37.796875 16.3125 
" id="BitstreamVeraSerif-Bold-61"/>
     <path d="M -0.78125 0 
L -0.78125 5.90625 
L 5.171875 5.90625 
L 32.625 72.90625 
L 44.28125 72.90625 
L 71.78125 5.90625 
L 78.71875 5.90625 
L 78.71875 0 
L 44.578125 0 
L 44.578125 5.90625 
L 51.703125 5.90625 
L 45.703125 20.796875 
L 18.3125 20.796875 
L 12.203125 5.90625 
L 20.90625 5.90625 
L 20.90625 0 
z
M 20.703125 26.703125 
L 43.3125 26.703125 
L 32.078125 54.59375 
z
" id="BitstreamVeraSerif-Bold-41"/>
    </defs>
    <g transform="translate(57.0740625 38.2)scale(0.18 -0.18)">
     <use xlink:href="#BitstreamVeraSerif-Bold-50"/>
     <use x="75.1640625" xlink:href="#BitstreamVeraSerif-Bold-65"/>
     <use x="138.787109375" xlink:href="#BitstreamVeraSerif-Bold-74"/>
     <use x="184.978515625" xlink:href="#BitstreamVeraSerif-Bold-49"/>
     <use x="231.755859375" xlink:href="#BitstreamVeraSerif-Bold-42"/>
     <use x="316.27734375" xlink:href="#BitstreamVeraSerif-Bold-4d"/>
     <use x="426.970703125" xlink:href="#BitstreamVeraSerif-Bold-20"/>
     <use x="461.78515625" xlink:href="#BitstreamVeraSerif-Bold-2b"/>
     <use x="545.57421875" xlink:href="#BitstreamVeraSerif-Bold-20"/>
     <use x="580.388671875" xlink:href="#BitstreamVeraSerif-Bold-41"/>
     <use x="657.9765625" xlink:href="#BitstreamVeraSerif-Bold-6d"/>
     <use x="763.787109375" xlink:href="#BitstreamVeraSerif-Bold-67"/>
     <use x="833.708984375" xlink:href="#BitstreamVeraSerif-Bold-58"/>
     <use x="911.296875" xlink:href="#BitstreamVeraSerif-Bold-2c"/>
     <use x="946.111328125" xlink:href="#BitstreamVeraSerif-Bold-20"/>
     <use x="980.92578125" xlink:href="#BitstreamVeraSerif-Bold-77"/>
     <use x="1067.009765625" xlink:href="#BitstreamVeraSerif-Bold-69"/>
     <use x="1104.998046875" xlink:href="#BitstreamVeraSerif-Bold-74"/>
     <use x="1151.189453125" xlink:href="#BitstreamVeraSerif-Bold-68"/>
     <use x="1223.89453125" xlink:href="#BitstreamVeraSerif-Bold-20"/>
     <use x="1258.708984375" xlink:href="#BitstreamVeraSerif-Bold-56"/>
     <use x="1336.15625" xlink:href="#BitstreamVeraSerif-Bold-61"/>
     <use x="1400.951171875" xlink:href="#BitstreamVeraSerif-Bold-72"/>
     <use x="1453.63671875" xlink:href="#BitstreamVeraSerif-Bold-79"/>
     <use x="1511.7421875" xlink:href="#BitstreamVeraSerif-Bold-69"/>
     <use x="1549.73046875" xlink:href="#BitstreamVeraSerif-Bold-6e"/>
     <use x="1622.435546875" xlink:href="#BitstreamVeraSerif-Bold-67"/>
     <use x="1692.357421875" xlink:href="#BitstreamVeraSerif-Bold-20"/>
     <use x="1727.171875" xlink:href="#BitstreamVeraSerif-Bold-4e"/>
     <use x="1818.578125" xlink:href="#BitstreamVeraSerif-Bold-75"/>
     <use x="1891.283203125" xlink:href="#BitstreamVeraSerif-Bold-6d"/>
     <use x="1997.09375" xlink:href="#BitstreamVeraSerif-Bold-62"/>
     <use x="2067.015625" xlink:href="#BitstreamVeraSerif-Bold-65"/>
     <use x="2130.638671875" xlink:href="#BitstreamVeraSerif-Bold-72"/>
     <use x="2183.32421875" xlink:href="#BitstreamVeraSerif-Bold-73"/>
     <use x="2239.623046875" xlink:href="#BitstreamVeraSerif-Bold-20"/>
     <use x="2274.4375" xlink:href="#BitstreamVeraSerif-Bold-6f"/>
     <use x="2341.13671875" xlink:href="#BitstreamVeraSerif-Bold-66"/>
     <use x="2384.154296875" xlink:href="#BitstreamVeraSerif-Bold-20"/>
     <use x="2418.96875" xlink:href="#BitstreamVeraSerif-Bold-43"/>
     <use x="2498.55859375" xlink:href="#BitstreamVeraSerif-Bold-50"/>
     <use x="2573.75390625" xlink:href="#BitstreamVeraSerif-Bold-55"/>
     <use x="2660.9609375" xlink:href="#BitstreamVeraSerif-Bold-20"/>
     <use x="2695.775390625" xlink:href="#BitstreamVeraSerif-Bold-43"/>
     <use x="2775.365234375" xlink:href="#BitstreamVeraSerif-Bold-6f"/>
     <use x="2842.064453125" xlink:href="#BitstreamVeraSerif-Bold-72"/>
     <use x="2894.75" xlink:href="#BitstreamVeraSerif-Bold-65"/>
     <use x="2958.373046875" xlink:href="#BitstreamVeraSerif-Bold-73"/>
     <use x="3014.671875" xlink:href="#BitstreamVeraSerif-Bold-20"/>
     <use x="3049.486328125" xlink:href="#BitstreamVeraSerif-Bold-61"/>
     <use x="3114.28125" xlink:href="#BitstreamVeraSerif-Bold-6e"/>
     <use x="3186.986328125" xlink:href="#BitstreamVeraSerif-Bold-64"/>
     <use x="3256.908203125" xlink:href="#BitstreamVeraSerif-Bold-20"/>
     <use x="3291.72265625" xlink:href="#BitstreamVeraSerif-Bold-47"/>
     <use x="3377.123046875" xlink:href="#BitstreamVeraSerif-Bold-50"/>
     <use x="3452.318359375" xlink:href="#BitstreamVeraSerif-Bold-55"/>
     <use x="3539.525390625" xlink:href="#BitstreamVeraSerif-Bold-73"/>
    </g>
   </g>
   <g id="patch_7">
    <path clip-path="url(#pa458aa53d7)" d="M 96.4125 317.52 
L 177.6375 317.52 
L 177.6375 73.884651 
L 96.4125 73.884651 
z
" style="fill:#348abd;"/>
   </g>
   <g id="patch_8">
    <path clip-path="url(#pa458aa53d7)" d="M 258.8625 317.52 
L 340.0875 317.52 
L 340.0875 258.940923 
L 258.8625 258.940923 
z
" style="fill:#348abd;"/>
   </g>
   <g id="patch_9">
    <path clip-path="url(#pa458aa53d7)" d="M 421.3125 317.52 
L 502.5375 317.52 
L 502.5375 90.970869 
L 421.3125 90.970869 
z
" style="fill:#348abd;"/>
   </g>
   <g id="patch_10">
    <path clip-path="url(#pa458aa53d7)" d="M 583.7625 317.52 
L 664.9875 317.52 
L 664.9875 256.779021 
L 583.7625 256.779021 
z
" style="fill:#348abd;"/>
   </g>
   <g id="patch_11">
    <path clip-path="url(#pa458aa53d7)" d="M 96.4125 73.884651 
L 177.6375 73.884651 
L 177.6375 69.986303 
L 96.4125 69.986303 
z
" style="fill:#7a68a6;"/>
   </g>
   <g id="patch_12">
    <path clip-path="url(#pa458aa53d7)" d="M 258.8625 258.940923 
L 340.0875 258.940923 
L 340.0875 249.645656 
L 258.8625 249.645656 
z
" style="fill:#7a68a6;"/>
   </g>
   <g id="patch_13">
    <path clip-path="url(#pa458aa53d7)" d="M 421.3125 90.970869 
L 502.5375 90.970869 
L 502.5375 87.079182 
L 421.3125 87.079182 
z
" style="fill:#7a68a6;"/>
   </g>
   <g id="patch_14">
    <path clip-path="url(#pa458aa53d7)" d="M 583.7625 256.779021 
L 664.9875 256.779021 
L 664.9875 253.118939 
L 583.7625 253.118939 
z
" style="fill:#7a68a6;"/>
   </g>
   <g id="patch_15">
    <path clip-path="url(#pa458aa53d7)" d="M 96.4125 69.986303 
L 177.6375 69.986303 
L 177.6375 69.731355 
L 96.4125 69.731355 
z
" style="fill:#a60628;"/>
   </g>
   <g id="patch_16">
    <path clip-path="url(#pa458aa53d7)" d="M 258.8625 249.645656 
L 340.0875 249.645656 
L 340.0875 249.052955 
L 258.8625 249.052955 
z
" style="fill:#a60628;"/>
   </g>
   <g id="patch_17">
    <path clip-path="url(#pa458aa53d7)" d="M 421.3125 87.079182 
L 502.5375 87.079182 
L 502.5375 86.825593 
L 421.3125 86.825593 
z
" style="fill:#a60628;"/>
   </g>
   <g id="patch_18">
    <path clip-path="url(#pa458aa53d7)" d="M 583.7625 253.118939 
L 664.9875 253.118939 
L 664.9875 252.867818 
L 583.7625 252.867818 
z
" style="fill:#a60628;"/>
   </g>
   <g id="patch_19">
    <path clip-path="url(#pa458aa53d7)" d="M 96.4125 69.731355 
L 177.6375 69.731355 
L 177.6375 66.471127 
L 96.4125 66.471127 
z
" style="fill:#467821;"/>
   </g>
   <g id="patch_20">
    <path clip-path="url(#pa458aa53d7)" d="M 258.8625 249.052955 
L 340.0875 249.052955 
L 340.0875 235.382675 
L 258.8625 235.382675 
z
" style="fill:#467821;"/>
   </g>
   <g id="patch_21">
    <path clip-path="url(#pa458aa53d7)" d="M 421.3125 86.825593 
L 502.5375 86.825593 
L 502.5375 83.584306 
L 421.3125 83.584306 
z
" style="fill:#467821;"/>
   </g>
   <g id="patch_22">
    <path clip-path="url(#pa458aa53d7)" d="M 583.7625 252.867818 
L 664.9875 252.867818 
L 664.9875 249.823519 
L 583.7625 249.823519 
z
" style="fill:#467821;"/>
   </g>
   <g id="patch_23">
    <path clip-path="url(#pa458aa53d7)" d="M 96.4125 66.471127 
L 177.6375 66.471127 
L 177.6375 66.125863 
L 96.4125 66.125863 
z
" style="fill:#cf4457;"/>
   </g>
   <g id="patch_24">
    <path clip-path="url(#pa458aa53d7)" d="M 258.8625 235.382675 
L 340.0875 235.382675 
L 340.0875 234.579609 
L 258.8625 234.579609 
z
" style="fill:#cf4457;"/>
   </g>
   <g id="patch_25">
    <path clip-path="url(#pa458aa53d7)" d="M 421.3125 83.584306 
L 502.5375 83.584306 
L 502.5375 83.239891 
L 421.3125 83.239891 
z
" style="fill:#cf4457;"/>
   </g>
   <g id="patch_26">
    <path clip-path="url(#pa458aa53d7)" d="M 583.7625 249.823519 
L 664.9875 249.823519 
L 664.9875 249.480332 
L 583.7625 249.480332 
z
" style="fill:#cf4457;"/>
   </g>
   <g id="patch_27">
    <path clip-path="url(#pa458aa53d7)" d="M 96.4125 66.125863 
L 177.6375 66.125863 
L 177.6375 64.570847 
L 96.4125 64.570847 
z
" style="fill:#188487;"/>
   </g>
   <g id="patch_28">
    <path clip-path="url(#pa458aa53d7)" d="M 258.8625 234.579609 
L 340.0875 234.579609 
L 340.0875 229.020723 
L 258.8625 229.020723 
z
" style="fill:#188487;"/>
   </g>
   <g id="patch_29">
    <path clip-path="url(#pa458aa53d7)" d="M 421.3125 83.239891 
L 502.5375 83.239891 
L 502.5375 81.331695 
L 421.3125 81.331695 
z
" style="fill:#188487;"/>
   </g>
   <g id="patch_30">
    <path clip-path="url(#pa458aa53d7)" d="M 583.7625 249.480332 
L 664.9875 249.480332 
L 664.9875 247.822316 
L 583.7625 247.822316 
z
" style="fill:#188487;"/>
   </g>
  </g>
  <g id="legend_1">
   <g id="patch_31">
    <path d="M 46.329063 422.84 
L 709.670938 422.84 
Q 712.470937 422.84 712.470937 420.04 
L 712.470937 359.194687 
Q 712.470937 356.394688 709.670938 356.394688 
L 46.329063 356.394688 
Q 43.529063 356.394688 43.529063 359.194687 
L 43.529063 420.04 
Q 43.529063 422.84 46.329063 422.84 
z
" style="fill:#e5e5e5;stroke:#bcbcbc;stroke-linejoin:miter;"/>
   </g>
   <g id="patch_32">
    <path d="M 49.129063 372.6325 
L 77.129063 372.6325 
L 77.129063 362.8325 
L 49.129063 362.8325 
z
" style="fill:#348abd;"/>
   </g>
   <g id="text_15">
    <!-- Solving Poisson System (on CPU or GPU) -->
    <defs>
     <path d="M 9.28125 3.515625 
L 9.28125 20.125 
L 14.890625 20.0625 
Q 15.140625 11.765625 19.703125 7.78125 
Q 24.265625 3.8125 33.59375 3.8125 
Q 42.28125 3.8125 46.84375 7.25 
Q 51.421875 10.6875 51.421875 17.28125 
Q 51.421875 22.5625 48.65625 25.390625 
Q 45.90625 28.21875 37.015625 30.90625 
L 27.390625 33.796875 
Q 16.9375 36.96875 12.671875 41.703125 
Q 8.40625 46.4375 8.40625 54.6875 
Q 8.40625 63.96875 14.984375 69.09375 
Q 21.578125 74.21875 33.5 74.21875 
Q 38.578125 74.21875 44.625 73.109375 
Q 50.6875 72.015625 57.515625 69.921875 
L 57.515625 54.390625 
L 52 54.390625 
Q 51.171875 62.109375 46.84375 65.546875 
Q 42.53125 69 33.6875 69 
Q 25.984375 69 21.953125 65.84375 
Q 17.921875 62.703125 17.921875 56.6875 
Q 17.921875 51.46875 20.9375 48.484375 
Q 23.96875 45.515625 33.796875 42.578125 
L 42.828125 39.890625 
Q 52.734375 36.921875 56.953125 32.296875 
Q 61.1875 27.6875 61.1875 19.921875 
Q 61.1875 9.328125 54.390625 3.953125 
Q 47.609375 -1.421875 34.1875 -1.421875 
Q 28.171875 -1.421875 21.9375 -0.1875 
Q 15.71875 1.03125 9.28125 3.515625 
" id="BitstreamVeraSerif-Roman-53"/>
     <path d="M 24.703125 0 
L 5.609375 46.6875 
L -0.296875 46.6875 
L -0.296875 51.90625 
L 23.578125 51.90625 
L 23.578125 46.6875 
L 15.28125 46.6875 
L 29.890625 10.984375 
L 44.484375 46.6875 
L 36.71875 46.6875 
L 36.71875 51.90625 
L 56.203125 51.90625 
L 56.203125 46.6875 
L 50.390625 46.6875 
L 31.296875 0 
z
" id="BitstreamVeraSerif-Roman-76"/>
    </defs>
    <g transform="translate(88.3290625 372.6325)scale(0.14 -0.14)">
     <use xlink:href="#BitstreamVeraSerif-Roman-53"/>
     <use x="68.505859375" xlink:href="#BitstreamVeraSerif-Roman-6f"/>
     <use x="128.7109375" xlink:href="#BitstreamVeraSerif-Roman-6c"/>
     <use x="160.693359375" xlink:href="#BitstreamVeraSerif-Roman-76"/>
     <use x="217.1875" xlink:href="#BitstreamVeraSerif-Roman-69"/>
     <use x="249.169921875" xlink:href="#BitstreamVeraSerif-Roman-6e"/>
     <use x="313.57421875" xlink:href="#BitstreamVeraSerif-Roman-67"/>
     <use x="377.587890625" xlink:href="#BitstreamVeraSerif-Roman-20"/>
     <use x="409.375" xlink:href="#BitstreamVeraSerif-Roman-50"/>
     <use x="476.59765625" xlink:href="#BitstreamVeraSerif-Roman-6f"/>
     <use x="536.802734375" xlink:href="#BitstreamVeraSerif-Roman-69"/>
     <use x="568.78515625" xlink:href="#BitstreamVeraSerif-Roman-73"/>
     <use x="620.103515625" xlink:href="#BitstreamVeraSerif-Roman-73"/>
     <use x="671.421875" xlink:href="#BitstreamVeraSerif-Roman-6f"/>
     <use x="731.626953125" xlink:href="#BitstreamVeraSerif-Roman-6e"/>
     <use x="796.03125" xlink:href="#BitstreamVeraSerif-Roman-20"/>
     <use x="827.818359375" xlink:href="#BitstreamVeraSerif-Roman-53"/>
     <use x="896.32421875" xlink:href="#BitstreamVeraSerif-Roman-79"/>
     <use x="952.818359375" xlink:href="#BitstreamVeraSerif-Roman-73"/>
     <use x="1004.13671875" xlink:href="#BitstreamVeraSerif-Roman-74"/>
     <use x="1044.322265625" xlink:href="#BitstreamVeraSerif-Roman-65"/>
     <use x="1103.501953125" xlink:href="#BitstreamVeraSerif-Roman-6d"/>
     <use x="1198.326171875" xlink:href="#BitstreamVeraSerif-Roman-20"/>
     <use x="1230.11328125" xlink:href="#BitstreamVeraSerif-Roman-28"/>
     <use x="1269.126953125" xlink:href="#BitstreamVeraSerif-Roman-6f"/>
     <use x="1329.33203125" xlink:href="#BitstreamVeraSerif-Roman-6e"/>
     <use x="1393.736328125" xlink:href="#BitstreamVeraSerif-Roman-20"/>
     <use x="1425.5234375" xlink:href="#BitstreamVeraSerif-Roman-43"/>
     <use x="1502.037109375" xlink:href="#BitstreamVeraSerif-Roman-50"/>
     <use x="1569.306640625" xlink:href="#BitstreamVeraSerif-Roman-55"/>
     <use x="1653.583984375" xlink:href="#BitstreamVeraSerif-Roman-20"/>
     <use x="1685.37109375" xlink:href="#BitstreamVeraSerif-Roman-6f"/>
     <use x="1745.576171875" xlink:href="#BitstreamVeraSerif-Roman-72"/>
     <use x="1793.37890625" xlink:href="#BitstreamVeraSerif-Roman-20"/>
     <use x="1825.166015625" xlink:href="#BitstreamVeraSerif-Roman-47"/>
     <use x="1905.048828125" xlink:href="#BitstreamVeraSerif-Roman-50"/>
     <use x="1972.318359375" xlink:href="#BitstreamVeraSerif-Roman-55"/>
     <use x="2056.595703125" xlink:href="#BitstreamVeraSerif-Roman-29"/>
    </g>
   </g>
   <g id="patch_33">
    <path d="M 49.129063 393.380938 
L 77.129063 393.380938 
L 77.129063 383.580938 
L 49.129063 383.580938 
z
" style="fill:#7a68a6;"/>
   </g>
   <g id="text_16">
    <!-- Solving Velocity System (on CPU) -->
    <defs>
     <path d="M 51.421875 15.578125 
Q 49.515625 7.28125 44.09375 2.921875 
Q 38.671875 -1.421875 30.078125 -1.421875 
Q 18.75 -1.421875 11.859375 6.078125 
Q 4.984375 13.578125 4.984375 25.984375 
Q 4.984375 38.421875 11.859375 45.875 
Q 18.75 53.328125 30.078125 53.328125 
Q 35.015625 53.328125 39.890625 52.171875 
Q 44.78125 51.03125 49.703125 48.6875 
L 49.703125 35.40625 
L 44.484375 35.40625 
Q 43.453125 42.234375 40.015625 45.359375 
Q 36.578125 48.484375 30.171875 48.484375 
Q 22.90625 48.484375 19.1875 42.84375 
Q 15.484375 37.203125 15.484375 25.984375 
Q 15.484375 14.75 19.171875 9.078125 
Q 22.859375 3.421875 30.171875 3.421875 
Q 35.984375 3.421875 39.453125 6.4375 
Q 42.921875 9.46875 44.1875 15.578125 
z
" id="BitstreamVeraSerif-Roman-63"/>
     <path d="M 17.484375 67.671875 
L 39.015625 11.71875 
L 60.5 67.671875 
L 52.296875 67.671875 
L 52.296875 72.90625 
L 73.6875 72.90625 
L 73.6875 67.671875 
L 66.609375 67.671875 
L 40.578125 0 
L 32.171875 0 
L 6.296875 67.671875 
L -0.984375 67.671875 
L -0.984375 72.90625 
L 25.59375 72.90625 
L 25.59375 67.671875 
z
" id="BitstreamVeraSerif-Roman-56"/>
    </defs>
    <g transform="translate(88.3290625 393.3809375)scale(0.14 -0.14)">
     <use xlink:href="#BitstreamVeraSerif-Roman-53"/>
     <use x="68.505859375" xlink:href="#BitstreamVeraSerif-Roman-6f"/>
     <use x="128.7109375" xlink:href="#BitstreamVeraSerif-Roman-6c"/>
     <use x="160.693359375" xlink:href="#BitstreamVeraSerif-Roman-76"/>
     <use x="217.1875" xlink:href="#BitstreamVeraSerif-Roman-69"/>
     <use x="249.169921875" xlink:href="#BitstreamVeraSerif-Roman-6e"/>
     <use x="313.57421875" xlink:href="#BitstreamVeraSerif-Roman-67"/>
     <use x="377.587890625" xlink:href="#BitstreamVeraSerif-Roman-20"/>
     <use x="409.375" xlink:href="#BitstreamVeraSerif-Roman-56"/>
     <use x="481.451171875" xlink:href="#BitstreamVeraSerif-Roman-65"/>
     <use x="540.630859375" xlink:href="#BitstreamVeraSerif-Roman-6c"/>
     <use x="572.61328125" xlink:href="#BitstreamVeraSerif-Roman-6f"/>
     <use x="632.818359375" xlink:href="#BitstreamVeraSerif-Roman-63"/>
     <use x="688.82421875" xlink:href="#BitstreamVeraSerif-Roman-69"/>
     <use x="720.806640625" xlink:href="#BitstreamVeraSerif-Roman-74"/>
     <use x="760.9921875" xlink:href="#BitstreamVeraSerif-Roman-79"/>
     <use x="817.486328125" xlink:href="#BitstreamVeraSerif-Roman-20"/>
     <use x="849.2734375" xlink:href="#BitstreamVeraSerif-Roman-53"/>
     <use x="917.779296875" xlink:href="#BitstreamVeraSerif-Roman-79"/>
     <use x="974.2734375" xlink:href="#BitstreamVeraSerif-Roman-73"/>
     <use x="1025.591796875" xlink:href="#BitstreamVeraSerif-Roman-74"/>
     <use x="1065.77734375" xlink:href="#BitstreamVeraSerif-Roman-65"/>
     <use x="1124.95703125" xlink:href="#BitstreamVeraSerif-Roman-6d"/>
     <use x="1219.78125" xlink:href="#BitstreamVeraSerif-Roman-20"/>
     <use x="1251.568359375" xlink:href="#BitstreamVeraSerif-Roman-28"/>
     <use x="1290.58203125" xlink:href="#BitstreamVeraSerif-Roman-6f"/>
     <use x="1350.787109375" xlink:href="#BitstreamVeraSerif-Roman-6e"/>
     <use x="1415.19140625" xlink:href="#BitstreamVeraSerif-Roman-20"/>
     <use x="1446.978515625" xlink:href="#BitstreamVeraSerif-Roman-43"/>
     <use x="1523.4921875" xlink:href="#BitstreamVeraSerif-Roman-50"/>
     <use x="1590.76171875" xlink:href="#BitstreamVeraSerif-Roman-55"/>
     <use x="1675.0390625" xlink:href="#BitstreamVeraSerif-Roman-29"/>
    </g>
   </g>
   <g id="patch_34">
    <path d="M 49.129063 414.129375 
L 77.129063 414.129375 
L 77.129063 404.329375 
L 49.129063 404.329375 
z
" style="fill:#a60628;"/>
   </g>
   <g id="text_17">
    <!-- Preparing Poisson System (on CPU) -->
    <defs>
     <path d="M 39.796875 16.3125 
L 39.796875 27.296875 
L 28.21875 27.296875 
Q 21.53125 27.296875 18.25 24.40625 
Q 14.984375 21.53125 14.984375 15.578125 
Q 14.984375 10.15625 18.296875 6.984375 
Q 21.625 3.8125 27.296875 3.8125 
Q 32.90625 3.8125 36.34375 7.28125 
Q 39.796875 10.75 39.796875 16.3125 
M 48.78125 32.421875 
L 48.78125 5.171875 
L 56.78125 5.171875 
L 56.78125 0 
L 39.796875 0 
L 39.796875 5.609375 
Q 36.8125 2 32.90625 0.28125 
Q 29 -1.421875 23.78125 -1.421875 
Q 15.140625 -1.421875 10.0625 3.171875 
Q 4.984375 7.765625 4.984375 15.578125 
Q 4.984375 23.640625 10.796875 28.078125 
Q 16.609375 32.515625 27.203125 32.515625 
L 39.796875 32.515625 
L 39.796875 36.078125 
Q 39.796875 42 36.203125 45.234375 
Q 32.625 48.484375 26.125 48.484375 
Q 20.75 48.484375 17.578125 46.046875 
Q 14.40625 43.609375 13.625 38.8125 
L 8.984375 38.8125 
L 8.984375 49.3125 
Q 13.671875 51.3125 18.09375 52.3125 
Q 22.515625 53.328125 26.703125 53.328125 
Q 37.5 53.328125 43.140625 47.96875 
Q 48.78125 42.625 48.78125 32.421875 
" id="BitstreamVeraSerif-Roman-61"/>
     <path d="M 20.515625 28.515625 
L 20.515625 23.390625 
Q 20.515625 14.015625 24.09375 9.109375 
Q 27.6875 4.203125 34.515625 4.203125 
Q 41.40625 4.203125 44.9375 9.71875 
Q 48.484375 15.234375 48.484375 25.984375 
Q 48.484375 36.765625 44.9375 42.234375 
Q 41.40625 47.703125 34.515625 47.703125 
Q 27.6875 47.703125 24.09375 42.765625 
Q 20.515625 37.84375 20.515625 28.515625 
M 11.53125 46.6875 
L 2.875 46.6875 
L 2.875 51.90625 
L 20.515625 51.90625 
L 20.515625 43.796875 
Q 23.140625 48.6875 27.21875 51 
Q 31.296875 53.328125 37.3125 53.328125 
Q 46.875 53.328125 52.921875 45.75 
Q 58.984375 38.1875 58.984375 25.984375 
Q 58.984375 13.765625 52.921875 6.171875 
Q 46.875 -1.421875 37.3125 -1.421875 
Q 31.296875 -1.421875 27.21875 0.890625 
Q 23.140625 3.21875 20.515625 8.109375 
L 20.515625 -15.578125 
L 29 -15.578125 
L 29 -20.796875 
L 2.875 -20.796875 
L 2.875 -15.578125 
L 11.53125 -15.578125 
z
" id="BitstreamVeraSerif-Roman-70"/>
    </defs>
    <g transform="translate(88.3290625 414.129375)scale(0.14 -0.14)">
     <use xlink:href="#BitstreamVeraSerif-Roman-50"/>
     <use x="67.28515625" xlink:href="#BitstreamVeraSerif-Roman-72"/>
     <use x="115.087890625" xlink:href="#BitstreamVeraSerif-Roman-65"/>
     <use x="174.267578125" xlink:href="#BitstreamVeraSerif-Roman-70"/>
     <use x="238.28125" xlink:href="#BitstreamVeraSerif-Roman-61"/>
     <use x="297.900390625" xlink:href="#BitstreamVeraSerif-Roman-72"/>
     <use x="345.703125" xlink:href="#BitstreamVeraSerif-Roman-69"/>
     <use x="377.685546875" xlink:href="#BitstreamVeraSerif-Roman-6e"/>
     <use x="442.08984375" xlink:href="#BitstreamVeraSerif-Roman-67"/>
     <use x="506.103515625" xlink:href="#BitstreamVeraSerif-Roman-20"/>
     <use x="537.890625" xlink:href="#BitstreamVeraSerif-Roman-50"/>
     <use x="605.11328125" xlink:href="#BitstreamVeraSerif-Roman-6f"/>
     <use x="665.318359375" xlink:href="#BitstreamVeraSerif-Roman-69"/>
     <use x="697.30078125" xlink:href="#BitstreamVeraSerif-Roman-73"/>
     <use x="748.619140625" xlink:href="#BitstreamVeraSerif-Roman-73"/>
     <use x="799.9375" xlink:href="#BitstreamVeraSerif-Roman-6f"/>
     <use x="860.142578125" xlink:href="#BitstreamVeraSerif-Roman-6e"/>
     <use x="924.546875" xlink:href="#BitstreamVeraSerif-Roman-20"/>
     <use x="956.333984375" xlink:href="#BitstreamVeraSerif-Roman-53"/>
     <use x="1024.83984375" xlink:href="#BitstreamVeraSerif-Roman-79"/>
     <use x="1081.333984375" xlink:href="#BitstreamVeraSerif-Roman-73"/>
     <use x="1132.65234375" xlink:href="#BitstreamVeraSerif-Roman-74"/>
     <use x="1172.837890625" xlink:href="#BitstreamVeraSerif-Roman-65"/>
     <use x="1232.017578125" xlink:href="#BitstreamVeraSerif-Roman-6d"/>
     <use x="1326.841796875" xlink:href="#BitstreamVeraSerif-Roman-20"/>
     <use x="1358.62890625" xlink:href="#BitstreamVeraSerif-Roman-28"/>
     <use x="1397.642578125" xlink:href="#BitstreamVeraSerif-Roman-6f"/>
     <use x="1457.84765625" xlink:href="#BitstreamVeraSerif-Roman-6e"/>
     <use x="1522.251953125" xlink:href="#BitstreamVeraSerif-Roman-20"/>
     <use x="1554.0390625" xlink:href="#BitstreamVeraSerif-Roman-43"/>
     <use x="1630.552734375" xlink:href="#BitstreamVeraSerif-Roman-50"/>
     <use x="1697.822265625" xlink:href="#BitstreamVeraSerif-Roman-55"/>
     <use x="1782.099609375" xlink:href="#BitstreamVeraSerif-Roman-29"/>
    </g>
   </g>
   <g id="patch_35">
    <path d="M 409.71 372.6325 
L 437.71 372.6325 
L 437.71 362.8325 
L 409.71 362.8325 
z
" style="fill:#467821;"/>
   </g>
   <g id="text_18">
    <!-- Preparing Velocity System (on CPU) -->
    <g transform="translate(448.91 372.6325)scale(0.14 -0.14)">
     <use xlink:href="#BitstreamVeraSerif-Roman-50"/>
     <use x="67.28515625" xlink:href="#BitstreamVeraSerif-Roman-72"/>
     <use x="115.087890625" xlink:href="#BitstreamVeraSerif-Roman-65"/>
     <use x="174.267578125" xlink:href="#BitstreamVeraSerif-Roman-70"/>
     <use x="238.28125" xlink:href="#BitstreamVeraSerif-Roman-61"/>
     <use x="297.900390625" xlink:href="#BitstreamVeraSerif-Roman-72"/>
     <use x="345.703125" xlink:href="#BitstreamVeraSerif-Roman-69"/>
     <use x="377.685546875" xlink:href="#BitstreamVeraSerif-Roman-6e"/>
     <use x="442.08984375" xlink:href="#BitstreamVeraSerif-Roman-67"/>
     <use x="506.103515625" xlink:href="#BitstreamVeraSerif-Roman-20"/>
     <use x="537.890625" xlink:href="#BitstreamVeraSerif-Roman-56"/>
     <use x="609.966796875" xlink:href="#BitstreamVeraSerif-Roman-65"/>
     <use x="669.146484375" xlink:href="#BitstreamVeraSerif-Roman-6c"/>
     <use x="701.12890625" xlink:href="#BitstreamVeraSerif-Roman-6f"/>
     <use x="761.333984375" xlink:href="#BitstreamVeraSerif-Roman-63"/>
     <use x="817.33984375" xlink:href="#BitstreamVeraSerif-Roman-69"/>
     <use x="849.322265625" xlink:href="#BitstreamVeraSerif-Roman-74"/>
     <use x="889.5078125" xlink:href="#BitstreamVeraSerif-Roman-79"/>
     <use x="946.001953125" xlink:href="#BitstreamVeraSerif-Roman-20"/>
     <use x="977.7890625" xlink:href="#BitstreamVeraSerif-Roman-53"/>
     <use x="1046.294921875" xlink:href="#BitstreamVeraSerif-Roman-79"/>
     <use x="1102.7890625" xlink:href="#BitstreamVeraSerif-Roman-73"/>
     <use x="1154.107421875" xlink:href="#BitstreamVeraSerif-Roman-74"/>
     <use x="1194.29296875" xlink:href="#BitstreamVeraSerif-Roman-65"/>
     <use x="1253.47265625" xlink:href="#BitstreamVeraSerif-Roman-6d"/>
     <use x="1348.296875" xlink:href="#BitstreamVeraSerif-Roman-20"/>
     <use x="1380.083984375" xlink:href="#BitstreamVeraSerif-Roman-28"/>
     <use x="1419.09765625" xlink:href="#BitstreamVeraSerif-Roman-6f"/>
     <use x="1479.302734375" xlink:href="#BitstreamVeraSerif-Roman-6e"/>
     <use x="1543.70703125" xlink:href="#BitstreamVeraSerif-Roman-20"/>
     <use x="1575.494140625" xlink:href="#BitstreamVeraSerif-Roman-43"/>
     <use x="1652.0078125" xlink:href="#BitstreamVeraSerif-Roman-50"/>
     <use x="1719.27734375" xlink:href="#BitstreamVeraSerif-Roman-55"/>
     <use x="1803.5546875" xlink:href="#BitstreamVeraSerif-Roman-29"/>
    </g>
   </g>
   <g id="patch_36">
    <path d="M 409.71 393.380938 
L 437.71 393.380938 
L 437.71 383.580938 
L 409.71 383.580938 
z
" style="fill:#cf4457;"/>
   </g>
   <g id="text_19">
    <!-- Projection Step (on CPU) -->
    <defs>
     <path d="M 10.015625 68.015625 
Q 10.015625 70.265625 11.640625 71.921875 
Q 13.28125 73.578125 15.578125 73.578125 
Q 17.828125 73.578125 19.453125 71.921875 
Q 21.09375 70.265625 21.09375 68.015625 
Q 21.09375 65.71875 19.5 64.109375 
Q 17.921875 62.5 15.578125 62.5 
Q 13.28125 62.5 11.640625 64.109375 
Q 10.015625 65.71875 10.015625 68.015625 
M 12.203125 46.6875 
L 3.71875 46.6875 
L 3.71875 51.90625 
L 21.1875 51.90625 
L 21.1875 -5.078125 
Q 21.1875 -13.09375 16.421875 -17.65625 
Q 11.671875 -22.21875 3.328125 -22.21875 
Q -0.203125 -22.21875 -3.390625 -21.40625 
Q -6.59375 -20.609375 -9.625 -19 
L -9.625 -8.296875 
L -4.984375 -8.296875 
Q -4.640625 -12.984375 -2.5625 -15.1875 
Q -0.484375 -17.390625 3.515625 -17.390625 
Q 7.953125 -17.390625 10.078125 -14.375 
Q 12.203125 -11.375 12.203125 -5.078125 
z
" id="BitstreamVeraSerif-Roman-6a"/>
    </defs>
    <g transform="translate(448.91 393.3809375)scale(0.14 -0.14)">
     <use xlink:href="#BitstreamVeraSerif-Roman-50"/>
     <use x="67.28515625" xlink:href="#BitstreamVeraSerif-Roman-72"/>
     <use x="115.087890625" xlink:href="#BitstreamVeraSerif-Roman-6f"/>
     <use x="175.29296875" xlink:href="#BitstreamVeraSerif-Roman-6a"/>
     <use x="206.298828125" xlink:href="#BitstreamVeraSerif-Roman-65"/>
     <use x="265.478515625" xlink:href="#BitstreamVeraSerif-Roman-63"/>
     <use x="321.484375" xlink:href="#BitstreamVeraSerif-Roman-74"/>
     <use x="361.669921875" xlink:href="#BitstreamVeraSerif-Roman-69"/>
     <use x="393.65234375" xlink:href="#BitstreamVeraSerif-Roman-6f"/>
     <use x="453.857421875" xlink:href="#BitstreamVeraSerif-Roman-6e"/>
     <use x="518.26171875" xlink:href="#BitstreamVeraSerif-Roman-20"/>
     <use x="550.048828125" xlink:href="#BitstreamVeraSerif-Roman-53"/>
     <use x="618.5546875" xlink:href="#BitstreamVeraSerif-Roman-74"/>
     <use x="658.740234375" xlink:href="#BitstreamVeraSerif-Roman-65"/>
     <use x="717.919921875" xlink:href="#BitstreamVeraSerif-Roman-70"/>
     <use x="781.93359375" xlink:href="#BitstreamVeraSerif-Roman-20"/>
     <use x="813.720703125" xlink:href="#BitstreamVeraSerif-Roman-28"/>
     <use x="852.734375" xlink:href="#BitstreamVeraSerif-Roman-6f"/>
     <use x="912.939453125" xlink:href="#BitstreamVeraSerif-Roman-6e"/>
     <use x="977.34375" xlink:href="#BitstreamVeraSerif-Roman-20"/>
     <use x="1009.130859375" xlink:href="#BitstreamVeraSerif-Roman-43"/>
     <use x="1085.64453125" xlink:href="#BitstreamVeraSerif-Roman-50"/>
     <use x="1152.9140625" xlink:href="#BitstreamVeraSerif-Roman-55"/>
     <use x="1237.19140625" xlink:href="#BitstreamVeraSerif-Roman-29"/>
    </g>
   </g>
   <g id="patch_37">
    <path d="M 409.71 414.129375 
L 437.71 414.129375 
L 437.71 404.329375 
L 409.71 404.329375 
z
" style="fill:#188487;"/>
   </g>
   <g id="text_20">
    <!-- Initialization (on CPU) -->
    <defs>
     <path d="M 4 0 
L 4 4.203125 
L 36.53125 46.6875 
L 10.796875 46.6875 
L 10.796875 37.703125 
L 5.609375 37.703125 
L 5.609375 51.90625 
L 48.09375 51.90625 
L 48.09375 47.703125 
L 15.578125 5.171875 
L 43.796875 5.171875 
L 43.796875 14.59375 
L 49.03125 14.59375 
L 49.03125 0 
z
" id="BitstreamVeraSerif-Roman-7a"/>
     <path d="M 24.703125 5.171875 
L 33.984375 5.171875 
L 33.984375 0 
L 5.515625 0 
L 5.515625 5.171875 
L 14.796875 5.171875 
L 14.796875 67.671875 
L 5.515625 67.671875 
L 5.515625 72.90625 
L 33.984375 72.90625 
L 33.984375 67.671875 
L 24.703125 67.671875 
z
" id="BitstreamVeraSerif-Roman-49"/>
    </defs>
    <g transform="translate(448.91 414.129375)scale(0.14 -0.14)">
     <use xlink:href="#BitstreamVeraSerif-Roman-49"/>
     <use x="39.501953125" xlink:href="#BitstreamVeraSerif-Roman-6e"/>
     <use x="103.90625" xlink:href="#BitstreamVeraSerif-Roman-69"/>
     <use x="135.888671875" xlink:href="#BitstreamVeraSerif-Roman-74"/>
     <use x="176.07421875" xlink:href="#BitstreamVeraSerif-Roman-69"/>
     <use x="208.056640625" xlink:href="#BitstreamVeraSerif-Roman-61"/>
     <use x="267.67578125" xlink:href="#BitstreamVeraSerif-Roman-6c"/>
     <use x="299.658203125" xlink:href="#BitstreamVeraSerif-Roman-69"/>
     <use x="331.640625" xlink:href="#BitstreamVeraSerif-Roman-7a"/>
     <use x="384.326171875" xlink:href="#BitstreamVeraSerif-Roman-61"/>
     <use x="443.9453125" xlink:href="#BitstreamVeraSerif-Roman-74"/>
     <use x="484.130859375" xlink:href="#BitstreamVeraSerif-Roman-69"/>
     <use x="516.11328125" xlink:href="#BitstreamVeraSerif-Roman-6f"/>
     <use x="576.318359375" xlink:href="#BitstreamVeraSerif-Roman-6e"/>
     <use x="640.72265625" xlink:href="#BitstreamVeraSerif-Roman-20"/>
     <use x="672.509765625" xlink:href="#BitstreamVeraSerif-Roman-28"/>
     <use x="711.5234375" xlink:href="#BitstreamVeraSerif-Roman-6f"/>
     <use x="771.728515625" xlink:href="#BitstreamVeraSerif-Roman-6e"/>
     <use x="836.1328125" xlink:href="#BitstreamVeraSerif-Roman-20"/>
     <use x="867.919921875" xlink:href="#BitstreamVeraSerif-Roman-43"/>
     <use x="944.43359375" xlink:href="#BitstreamVeraSerif-Roman-50"/>
     <use x="1011.703125" xlink:href="#BitstreamVeraSerif-Roman-55"/>
     <use x="1095.98046875" xlink:href="#BitstreamVeraSerif-Roman-29"/>
    </g>
   </g>
  </g>
 </g>
 <defs>
  <clipPath id="pa458aa53d7">
   <rect height="274.32" width="649.8" x="55.8" y="43.2"/>
  </clipPath>
 </defs>
</svg>
