<?xml version="1.0" encoding="UTF-8" standalone="no"?>
<!-- Generator: Adobe Illustrator 15.0.2, SVG Export Plug-In . SVG Version: 6.00 Build 0)  -->

<svg
   xmlns:dc="http://purl.org/dc/elements/1.1/"
   xmlns:cc="http://creativecommons.org/ns#"
   xmlns:rdf="http://www.w3.org/1999/02/22-rdf-syntax-ns#"
   xmlns:svg="http://www.w3.org/2000/svg"
   xmlns="http://www.w3.org/2000/svg"
   xmlns:sodipodi="http://sodipodi.sourceforge.net/DTD/sodipodi-0.dtd"
   xmlns:inkscape="http://www.inkscape.org/namespaces/inkscape"
   version="1.1"
   id="Calque_1"
   x="0px"
   y="0px"
   width="827.24597"
   height="819.45502"
   viewBox="0 0 827.24597 819.45502"
   enable-background="new 0 0 1024 1024"
   xml:space="preserve"
   inkscape:version="0.91 r13725"
   sodipodi:docname="cpu-z.svg"
   inkscape:export-filename="/home/pychuang/Cloud/BarbaGroup/conferences/GTC2016/plots/cpu.png"
   inkscape:export-xdpi="90"
   inkscape:export-ydpi="90"><metadata
     id="metadata5597"><rdf:RDF><cc:Work
         rdf:about=""><dc:format>image/svg+xml</dc:format><dc:type
           rdf:resource="http://purl.org/dc/dcmitype/StillImage" /><dc:title></dc:title></cc:Work></rdf:RDF></metadata><defs
     id="defs5595" /><sodipodi:namedview
     pagecolor="#ffffff"
     bordercolor="#666666"
     borderopacity="1"
     objecttolerance="10"
     gridtolerance="10"
     guidetolerance="10"
     inkscape:pageopacity="0"
     inkscape:pageshadow="2"
     inkscape:window-width="1918"
     inkscape:window-height="1059"
     id="namedview5593"
     showgrid="false"
     fit-margin-top="0"
     fit-margin-left="0"
     fit-margin-right="0"
     fit-margin-bottom="0"
     inkscape:zoom="0.62013265"
     inkscape:cx="240.06899"
     inkscape:cy="352.29306"
     inkscape:window-x="0"
     inkscape:window-y="19"
     inkscape:window-maximized="0"
     inkscape:current-layer="Calque_1"
     showborder="true" /><linearGradient
     id="SVGID_1_"
     gradientUnits="userSpaceOnUse"
     x1="49.0825"
     y1="157.416"
     x2="1073.082"
     y2="157.416"
     gradientTransform="matrix(0,1,1,0,354.58399,-49.081993)"><stop
       offset="0"
       style="stop-color:#4D2899"
       id="stop5533" /><stop
       offset="1"
       style="stop-color:#381D6F"
       id="stop5535" /></linearGradient><path
     style="fill:#000000"
     inkscape:connector-curvature="0"
     id="path5541"
     d="m 482.402,291.597 -131.412,0 c -28.124,0 -51.001,22.895 -51.001,51.01 l 0,127.887 c 0,28.119 22.877,50.979 51.001,50.979 l 131.412,0 c 28.116,0 50.98,-22.858 50.98,-50.979 l 0,-127.887 c 0,-28.115 -22.864,-51.01 -50.98,-51.01 z" /><path
     style="fill:#000000"
     inkscape:connector-curvature="0"
     id="path5543"
     d="m 648.511,23.36 0,0 C 648.51,10.456 638.055,0 625.151,0 612.246,0 601.792,10.456 601.792,23.36 l 0,46.72 46.72,0 0,-46.72 z" /><path
     style="fill:#000000"
     inkscape:connector-curvature="0"
     id="path5545"
     d="m 565.458,23.36 0,0 C 565.457,10.456 555.002,0 542.097,0 c -12.902,0 -23.36,10.456 -23.36,23.36 l 0,46.72 46.722,0 0,-46.72 z" /><path
     style="fill:#000000"
     inkscape:connector-curvature="0"
     id="path5547"
     d="m 482.406,23.36 0,0 C 482.405,10.456 471.945,0 459.047,0 c -12.9,0 -23.36,10.456 -23.36,23.36 l 0,46.72 46.72,0 0,-46.72 z" /><path
     style="fill:#000000"
     inkscape:connector-curvature="0"
     id="path5549"
     d="M 399.352,23.36 C 399.352,10.456 388.893,0 375.992,0 c -12.9,0 -23.359,10.456 -23.359,23.36 l 0,46.72 46.72,0 0,-46.72 z" /><path
     style="fill:#000000"
     inkscape:connector-curvature="0"
     id="path5551"
     d="m 316.301,23.36 0,0 C 316.3,10.456 305.841,0 292.94,0 280.039,0 269.58,10.456 269.58,23.36 l 0,46.72 46.722,0 0,-46.72 z" /><path
     style="fill:#000000"
     inkscape:connector-curvature="0"
     id="path5553"
     d="M 233.247,23.36 C 233.247,10.456 222.788,0 209.887,0 c -12.901,0 -23.36,10.456 -23.36,23.36 l 0,46.72 46.721,0 0,-46.72 z" /><path
     style="fill:#000000"
     inkscape:connector-curvature="0"
     id="path5555"
     d="m 186.527,796.095 c 0,12.897 10.459,23.36 23.36,23.36 12.901,0 23.36,-10.463 23.36,-23.36 l 0,-46.72 -46.721,0 0,46.72 z" /><path
     style="fill:#000000"
     inkscape:connector-curvature="0"
     id="path5557"
     d="m 269.578,796.095 0.002,0 c 0,12.897 10.459,23.36 23.359,23.36 12.901,0 23.36,-10.463 23.36,-23.36 l 0,-46.72 -46.722,0 0,46.72 z" /><path
     style="fill:#000000"
     inkscape:connector-curvature="0"
     id="path5559"
     d="m 352.632,796.095 c 0,12.897 10.459,23.36 23.359,23.36 12.901,0 23.36,-10.463 23.36,-23.36 l 0,-46.72 -46.72,0 0,46.72 z" /><path
     style="fill:#000000"
     inkscape:connector-curvature="0"
     id="path5561"
     d="m 435.684,796.095 0,0 c 10e-4,12.897 10.461,23.36 23.361,23.36 12.898,0 23.358,-10.463 23.358,-23.36 l 0,-46.72 -46.72,0 0,46.72 z" /><path
     style="fill:#000000"
     inkscape:connector-curvature="0"
     id="path5563"
     d="m 518.736,796.095 0,0 c 10e-4,12.897 10.459,23.36 23.361,23.36 12.905,0 23.359,-10.463 23.359,-23.36 l 0,-46.72 -46.721,0 0,46.72 z" /><path
     style="fill:#000000"
     inkscape:connector-curvature="0"
     id="path5565"
     d="m 601.788,796.095 0.002,0 c 0,12.897 10.455,23.36 23.359,23.36 12.904,0 23.359,-10.463 23.359,-23.36 l 0,-46.72 -46.721,0 0,46.72 z" /><path
     style="fill:#000000"
     inkscape:connector-curvature="0"
     id="path5567"
     d="m 803.886,586.212 -46.72,0 0,46.723 46.72,0 c 12.904,0 23.359,-10.455 23.359,-23.36 0,-12.905 -10.455,-23.363 -23.359,-23.363 z" /><path
     style="fill:#000000"
     inkscape:connector-curvature="0"
     id="path5569"
     d="m 803.886,503.161 -46.72,0 0,46.72 46.72,0 c 12.904,0 23.359,-10.456 23.359,-23.36 10e-4,-12.904 -10.455,-23.36 -23.359,-23.36 z" /><path
     style="fill:#000000"
     inkscape:connector-curvature="0"
     id="path5571"
     d="m 803.886,420.108 -46.72,0 0,46.72 46.72,0 c 12.904,0 23.359,-10.455 23.359,-23.359 10e-4,-12.906 -10.455,-23.361 -23.359,-23.361 z" /><path
     style="fill:#000000"
     inkscape:connector-curvature="0"
     id="path5573"
     d="m 803.886,337.056 -46.72,0 0,46.718 46.72,0 c 12.904,0 23.359,-10.456 23.359,-23.36 0,-12.904 -10.455,-23.358 -23.359,-23.358 z" /><path
     style="fill:#000000"
     inkscape:connector-curvature="0"
     id="path5575"
     d="m 803.886,254.002 -46.72,0 0,46.72 46.72,0 c 12.904,0 23.359,-10.462 23.359,-23.359 10e-4,-12.905 -10.455,-23.361 -23.359,-23.361 z" /><path
     style="fill:#000000"
     inkscape:connector-curvature="0"
     id="path5577"
     d="m 827.246,194.309 c 0,-12.904 -10.455,-23.36 -23.359,-23.36 l -46.72,0 0,46.72 46.72,0 c 12.903,0 23.359,-10.463 23.359,-23.36 z" /><path
     style="fill:#000000"
     inkscape:connector-curvature="0"
     id="path5579"
     d="m 0.004,194.309 c 0,12.896 10.459001,23.36 23.360001,23.36 l 46.72,0 0,-46.72 -46.72,0 c -12.901,0 -23.360001,10.457 -23.360001,23.36 z" /><path
     style="fill:#000000"
     inkscape:connector-curvature="0"
     id="path5581"
     d="m 0.004,277.363 c 0,12.897 10.459001,23.359 23.360001,23.359 l 46.72,0 0,-46.72 -46.72,0 c -12.901,0 -23.360001,10.456 -23.360001,23.361 z" /><path
     style="fill:#000000"
     inkscape:connector-curvature="0"
     id="path5583"
     d="m 0,360.414 c 0,12.905 10.463001,23.36 23.360001,23.36 l 46.719,0 0.004,-46.718 -46.72,0 C 10.463001,337.056 0.004,347.51 0,360.414 Z" /><path
     style="fill:#000000"
     inkscape:connector-curvature="0"
     id="path5585"
     d="m 0,443.468 c 0,12.905 10.463001,23.36 23.360001,23.36 l 46.719,0 0,-46.72 -46.719,0 C 10.463001,420.108 0,430.563 0,443.468 Z" /><path
     style="fill:#000000"
     inkscape:connector-curvature="0"
     id="path5587"
     d="m 0,526.519 c 0,12.904 10.463001,23.36 23.360001,23.36 l 46.719,0 0,-46.72 -46.719,0 C 10.463001,503.161 0,513.617 0,526.519 Z" /><path
     style="fill:#000000"
     inkscape:connector-curvature="0"
     id="path5589"
     d="m 0,609.573 c 0,12.905 10.463001,23.36 23.360001,23.36 l 46.719,0 0,-46.723 -46.719,0 C 10.463001,586.212 0,596.668 0,609.573 Z" /><path
     style="fill:#000000"
     inkscape:connector-curvature="0"
     id="path5591"
     d="m 697.117,92.588 -564.368,0 c -17.2,0 -31.146,13.947 -31.146,31.148 l 0,564.367 c 0,17.197 13.946,31.146 31.146,31.146 l 429.924,0 c 0.062,0.524 0.085,1.064 0.161,1.58 l 46.689,0 c 0.076,-0.516 0.099,-1.056 0.158,-1.58 l 87.434,0 c 17.21,0 31.146,-13.948 31.146,-31.146 l 0,-564.367 c 10e-4,-17.202 -13.935,-31.148 -31.144,-31.148 z m -14.182,254.338 -51.199,0 c -4.996,-13.746 -18.074,-23.681 -33.564,-23.681 -19.778,0 -35.823,16.039 -35.823,35.832 0,19.794 16.045,35.816 35.823,35.816 15.506,0 28.585,-9.915 33.564,-23.694 l 51.199,0 0,71.548 c -3.423,-0.381 -7.21,-0.607 -11.635,-0.607 l -41.587,0 c -4.996,-13.787 -18.076,-23.694 -33.572,-23.694 -19.78,0 -35.816,16.053 -35.816,35.853 0,19.772 16.036,35.802 35.816,35.802 15.496,0 28.583,-9.901 33.572,-23.688 l 41.587,0 c 4.791,0 8.463,0.288 11.635,0.814 l 0,193.372 c 0,7.353 -5.97,13.315 -13.322,13.315 l -71.951,0 c 0.197,-17.118 0.364,-39.314 0.364,-51.23 0,-34.844 -19.672,-55.661 -52.612,-55.661 l -49.283,0 c -5.551,-12.551 -17.99,-21.347 -32.606,-21.347 -19.778,0 -35.814,16.044 -35.814,35.822 0,19.778 16.036,35.826 35.814,35.826 16.47,0 30.183,-11.165 34.382,-26.306 l 0,0.289 47.508,0 c 19.588,0 28.326,9.688 28.326,31.375 0,12.008 -0.168,34.112 -0.374,51.23 l -340.854,0 c -0.091,-23.506 -0.148,-48.395 -0.148,-51.23 0,-21.687 8.733,-31.375 28.333,-31.375 l 73.473,0 c 4.28,14.966 17.923,26.017 34.275,26.017 19.79,0 35.827,-16.048 35.827,-35.826 0,-19.778 -16.038,-35.822 -35.827,-35.822 -14.618,0 -27.153,8.808 -32.713,21.347 l -75.035,0 c -32.948,0 -52.608,20.817 -52.608,55.661 0,2.799 0.05,27.739 0.13,51.23 l -47.96,0 c -7.356,0 -13.322,-5.964 -13.322,-13.315 l 0,-196.001 c 21.976,0.075 43.788,0.281 54.67,0.381 4.97,13.816 18.063,23.777 33.604,23.777 19.771,0 35.812,-16.053 35.812,-35.83 0,-19.801 -16.041,-35.831 -35.812,-35.831 -15.476,0 -28.542,9.871 -33.555,23.604 -11.007,-0.106 -32.781,-0.312 -54.719,-0.389 l 0,-68.414 56.716,0 c 4.98,13.776 18.07,23.7 33.571,23.7 19.787,0 35.827,-16.061 35.827,-35.839 0,-19.77 -16.041,-35.822 -35.827,-35.822 -15.501,0 -28.565,9.877 -33.561,23.656 l -56.728,0 0,-196.351 c 0,-7.354 5.965,-13.315 13.322,-13.315 l 196.1,0 0,57.399 c -13.78,4.989 -23.69,18.076 -23.69,33.573 0,19.785 16.046,35.816 35.826,35.816 19.783,0 35.815,-16.031 35.815,-35.816 0,-15.497 -9.901,-28.562 -23.672,-33.549 l 0,-57.423 70.721,0 0,58.399 c -13.78,4.989 -23.69,18.076 -23.69,33.573 0,19.786 16.046,35.816 35.826,35.816 19.783,0 35.815,-16.031 35.815,-35.816 0,-15.497 -9.901,-28.562 -23.672,-33.549 l 0,-58.423 193.976,0 c 7.354,0 13.322,5.961 13.322,13.315 l 0,195.686 z" /></svg>